<svg xmlns="http://www.w3.org/2000/svg"
	 xmlns:xlink="http://www.w3.org/1999/xlink"
	 id="svg-08-section6"
	 viewBox="0 0 390 70">



  <g id="flux_by_csp">
    <line x1="228.07" y1="52.93" x2="228.07" y2="34.22"/>
    <line x1="199.05" y1="52.93" x2="199.05" y2="34.22"/>
    <line x1="170.04" y1="52.93" x2="170.04" y2="34.22"/>
    <line x1="141.02" y1="52.93" x2="141.02" y2="34.22"/>
    <text transform="translate(198.1 63.36)">2</text>
    <text transform="translate(201.46 63.36) scale(0.7 1)"> </text>
    <text transform="translate(202.63 63.36)">500</text>
    <text transform="translate(168.23 63.36)">5</text>
    <text transform="translate(171.59 63.36) scale(0.7 1)"> </text>
    <text transform="translate(172.77 63.36)">000</text>
    <text transform="translate(137.49 63.36)">10</text>
    <text transform="translate(145.39 63.36)">000</text>
    <text transform="translate(227.2 63.36)">1</text>
    <text transform="translate(230.56 63.36) scale(0.7 1)"> </text>
    <text transform="translate(231.73 63.36)">000</text>
  </g>
  <g id="flux_all_csp">
    <text transform="translate(198.1 63.36)">2</text>
    <text transform="translate(201.46 63.36) scale(0.7 1)"> </text>
    <text transform="translate(202.63 63.36)">500</text>
    <text transform="translate(168.23 63.36)">5</text>
    <text transform="translate(171.59 63.36) scale(0.7 1)"> </text>
    <text transform="translate(172.77 63.36)">000</text>
    <text transform="translate(137.49 63.36)">40</text>
    <text transform="translate(144.21 63.36) scale(0.7 1)"> </text>
    <text transform="translate(145.39 63.36)">000</text>
    <text transform="translate(227.2 63.36)">1</text>
    <text transform="translate(230.56 63.36) scale(0.7 1)"> </text>
    <text transform="translate(231.73 63.36)">000</text>
    <line x1="228.07" y1="52.93" x2="228.07" y2="34.22"/>
    <line x1="199.05" y1="52.93" x2="199.05" y2="34.22"/>
    <line x1="170.04" y1="52.93" x2="170.04" y2="34.22"/>
    <line x1="141.02" y1="52.93" x2="141.02" y2="34.22"/>
  </g>
  <g id="titre">
    <text data-name="Flux résidentiels interdépartementaux en 2014 (somme des échanges)" class="cls-11" transform="translate(115.8 12)"><tspan class="cls-12">F</tspan><tspan x="4.7" y="0">lux </tspan><tspan class="cls-13" x="19.32" y="0">r</tspan><tspan x="22.49" y="0">éside</tspan><tspan class="cls-14" x="44.45" y="0">n</tspan><tspan x="49.96" y="0">tiels i</tspan><tspan class="cls-14" x="71.4" y="0">n</tspan><tspan class="cls-15" x="76.91" y="0">t</tspan><tspan class="cls-16" x="80.16" y="0">e</tspan><tspan class="cls-13" x="85.17" y="0">r</tspan><tspan class="cls-17" x="88.34" y="0">dépa</tspan><tspan class="cls-18" x="109.5" y="0">r</tspan><tspan class="cls-15" x="113.01" y="0">t</tspan><tspan x="116.26" y="0">eme</tspan><tspan class="cls-14" x="134.62" y="0">n</tspan><tspan x="140.13" y="0">taux</tspan><tspan x="13.72" y="10">en 2014 (somme des échanges)</tspan></text>
  </g>
</svg>