<?xml version="1.0" encoding="UTF-8"?>
<?xml-stylesheet type="text/css" href="../css/svg.css" ?>

<svg xmlns="http://www.w3.org/2000/svg"
	 id="svg-01-section1"
	 viewBox="0 0 320 300"
	 x="0px" y="0px"
	 preserveAspectRatio="xMinYMin meet">	
	
<g id="_x3C_Calque_x3E_">
	<g id="waffle">
		<g id="same-logement">
		</g>
		<g id="same-commune">
		</g>
		<g id="same-department">
		</g>
		<g id="same-region">
		</g>
		<g id="same-country">
		</g>
		<g id="same-earth">
		</g>
	</g>
	<g id="text">
	</g>
	<g id="Plan_de_travail_2">
		<g id="Titre_1_">
		</g>
	</g>
	<g id="legende">
	</g>
</g>
<g id="fond">
	<rect x="-142.426" y="-28.882" fill="#282828" width="585" height="385.5"/>
</g>
<g id="texte">
	<rect x="0.371" y="48" fill="none" width="156.192" height="25.5"/>
	<text class="text-middle" transform="matrix(1 0 0 1 45.5415 54.6781)"><tspan x="0" y="0" fill="#FFFFFF" font-family="'Montserrat-Regular'" font-size="9px">113 ont changé</tspan><tspan x="3.775" y="10.8" fill="#FFFFFF" font-family="'Montserrat-Regular'" font-size="9px">de logement</tspan></text>
	<rect x="164.12" y="46.417" fill="none" width="152.075" height="28.667"/>
	<text class="text-middle" transform="matrix(1 0 0 1 191.1935 53.0947)"><tspan x="0" y="0" fill="#FFFFFF" font-family="'Montserrat-Regular'" font-size="9px">887 sont restées dans</tspan><tspan x="5.49" y="10.8" fill="#FFFFFF" font-family="'Montserrat-Regular'" font-size="9px">le même logement</tspan></text>
	<circle fill="#DADADA" cx="44.966" cy="98.766" r="2.5"/>
	<circle fill="#DADADA" cx="42.466" cy="108.016" r="2.5"/>
	<g>
		<circle fill="#DADADA" cx="61.074" cy="101.266" r="2.5"/>
	</g>
	<g>
		<circle fill="#DADADA" cx="52.798" cy="105.516" r="2.5"/>
	</g>
	<g>
		<circle fill="#DADADA" cx="55.298" cy="96.266" r="2.5"/>
	</g>
	<circle fill="#DADADA" cx="36.462" cy="115.774" r="2.5"/>
	<circle fill="#DADADA" cx="33.962" cy="125.024" r="2.5"/>
	<g>
		<circle fill="#DADADA" cx="52.57" cy="118.274" r="2.5"/>
	</g>
	<g>
		<circle fill="#DADADA" cx="44.294" cy="122.524" r="2.5"/>
	</g>
	<g>
		<circle fill="#DADADA" cx="46.794" cy="113.274" r="2.5"/>
	</g>
	<circle fill="#DADADA" cx="47.8" cy="129.947" r="2.5"/>
	<circle fill="#DADADA" cx="45.3" cy="139.197" r="2.5"/>
	<g>
		<circle fill="#DADADA" cx="63.909" cy="132.447" r="2.5"/>
	</g>
	<g>
		<circle fill="#DADADA" cx="55.633" cy="136.697" r="2.5"/>
	</g>
	<g>
		<circle fill="#DADADA" cx="58.133" cy="127.447" r="2.5"/>
	</g>
	<circle fill="#DADADA" cx="67.643" cy="110.104" r="2.5"/>
	<circle fill="#DADADA" cx="65.143" cy="119.354" r="2.5"/>
	<g>
		<circle fill="#DADADA" cx="83.751" cy="112.604" r="2.5"/>
	</g>
	<g>
		<circle fill="#DADADA" cx="75.476" cy="116.854" r="2.5"/>
	</g>
	<g>
		<circle fill="#DADADA" cx="77.976" cy="107.604" r="2.5"/>
	</g>
	<circle fill="#DADADA" cx="71.171" cy="87.967" r="2.5"/>
	<circle fill="#DADADA" cx="68.671" cy="97.217" r="2.5"/>
	<g>
		<circle fill="#DADADA" cx="87.28" cy="90.467" r="2.5"/>
	</g>
	<g>
		<circle fill="#DADADA" cx="79.004" cy="94.717" r="2.5"/>
	</g>
	<g>
		<circle fill="#DADADA" cx="81.504" cy="85.467" r="2.5"/>
	</g>
	<circle fill="#DADADA" cx="92.28" cy="97.891" r="2.5"/>
	<circle fill="#DADADA" cx="89.78" cy="107.141" r="2.5"/>
	<g>
		<circle fill="#DADADA" cx="108.388" cy="100.391" r="2.5"/>
	</g>
	<g>
		<circle fill="#DADADA" cx="100.113" cy="104.641" r="2.5"/>
	</g>
	<g>
		<circle fill="#DADADA" cx="102.613" cy="95.391" r="2.5"/>
	</g>
	<circle fill="#DADADA" cx="101.584" cy="113.479" r="2.5"/>
	<circle fill="#DADADA" cx="99.084" cy="122.729" r="2.5"/>
	<g>
		<circle fill="#DADADA" cx="117.692" cy="115.979" r="2.5"/>
	</g>
	<g>
		<circle fill="#DADADA" cx="199.837" cy="115.979" r="2.5"/>
	</g>
	<g>
		<circle fill="#DADADA" cx="197.337" cy="123.833" r="2.5"/>
	</g>
	<g>
		<circle fill="#DADADA" cx="204.837" cy="121.333" r="2.5"/>
	</g>
	<g>
		<circle fill="#DADADA" cx="211.22" cy="116.667" r="2.5"/>
	</g>
	<g>
		<circle fill="#DADADA" cx="205.553" cy="111.667" r="2.5"/>
	</g>
	<g>
		<circle fill="#DADADA" cx="217.503" cy="96.813" r="2.5"/>
	</g>
	<g>
		<circle fill="#DADADA" cx="215.003" cy="104.667" r="2.5"/>
	</g>
	<g>
		<circle fill="#DADADA" cx="222.503" cy="102.167" r="2.5"/>
	</g>
	<g>
		<circle fill="#DADADA" cx="228.886" cy="97.5" r="2.5"/>
	</g>
	<g>
		<circle fill="#DADADA" cx="223.22" cy="92.5" r="2.5"/>
	</g>
	<g>
		<circle fill="#DADADA" cx="204.228" cy="129.813" r="2.5"/>
	</g>
	<g>
		<circle fill="#DADADA" cx="201.728" cy="137.667" r="2.5"/>
	</g>
	<g>
		<circle fill="#DADADA" cx="209.228" cy="135.167" r="2.5"/>
	</g>
	<g>
		<circle fill="#DADADA" cx="215.611" cy="130.5" r="2.5"/>
	</g>
	<g>
		<circle fill="#DADADA" cx="209.945" cy="125.5" r="2.5"/>
	</g>
	<g>
		<circle fill="#DADADA" cx="221.895" cy="110.646" r="2.5"/>
	</g>
	<g>
		<circle fill="#DADADA" cx="219.395" cy="118.5" r="2.5"/>
	</g>
	<g>
		<circle fill="#DADADA" cx="226.895" cy="116" r="2.5"/>
	</g>
	<g>
		<circle fill="#DADADA" cx="233.278" cy="111.333" r="2.5"/>
	</g>
	<g>
		<circle fill="#DADADA" cx="227.611" cy="106.333" r="2.5"/>
	</g>
	<g>
		<circle fill="#DADADA" cx="226.883" cy="129.813" r="2.5"/>
	</g>
	<g>
		<circle fill="#DADADA" cx="224.383" cy="137.667" r="2.5"/>
	</g>
	<g>
		<circle fill="#DADADA" cx="231.883" cy="135.167" r="2.5"/>
	</g>
	<g>
		<circle fill="#DADADA" cx="238.266" cy="130.5" r="2.5"/>
	</g>
	<g>
		<circle fill="#DADADA" cx="232.599" cy="125.5" r="2.5"/>
	</g>
	<g>
		<circle fill="#DADADA" cx="244.549" cy="110.646" r="2.5"/>
	</g>
	<g>
		<circle fill="#DADADA" cx="242.049" cy="118.5" r="2.5"/>
	</g>
	<g>
		<circle fill="#DADADA" cx="249.549" cy="116" r="2.5"/>
	</g>
	<g>
		<circle fill="#DADADA" cx="255.932" cy="111.333" r="2.5"/>
	</g>
	<g>
		<circle fill="#DADADA" cx="250.266" cy="106.333" r="2.5"/>
	</g>
	<g>
		<circle fill="#DADADA" cx="245.157" cy="137.625" r="2.5"/>
	</g>
	<g>
		<circle fill="#DADADA" cx="242.657" cy="145.479" r="2.5"/>
	</g>
	<g>
		<circle fill="#DADADA" cx="250.157" cy="142.979" r="2.5"/>
	</g>
	<g>
		<circle fill="#DADADA" cx="256.54" cy="138.313" r="2.5"/>
	</g>
	<g>
		<circle fill="#DADADA" cx="250.874" cy="133.313" r="2.5"/>
	</g>
	<g>
		<circle fill="#DADADA" cx="262.824" cy="118.459" r="2.5"/>
	</g>
	<g>
		<circle fill="#DADADA" cx="260.324" cy="126.313" r="2.5"/>
	</g>
	<g>
		<circle fill="#DADADA" cx="267.824" cy="123.813" r="2.5"/>
	</g>
	<g>
		<circle fill="#DADADA" cx="274.207" cy="119.146" r="2.5"/>
	</g>
	<g>
		<circle fill="#DADADA" cx="268.54" cy="114.146" r="2.5"/>
	</g>
	<g>
		<circle fill="#DADADA" cx="259.04" cy="150.792" r="2.5"/>
	</g>
	<g>
		<circle fill="#DADADA" cx="256.54" cy="158.646" r="2.5"/>
	</g>
	<g>
		<circle fill="#DADADA" cx="264.04" cy="156.146" r="2.5"/>
	</g>
	<g>
		<circle fill="#DADADA" cx="270.424" cy="151.479" r="2.5"/>
	</g>
	<g>
		<circle fill="#DADADA" cx="264.757" cy="146.479" r="2.5"/>
	</g>
	<g>
		<circle fill="#DADADA" cx="276.707" cy="131.625" r="2.5"/>
	</g>
	<g>
		<circle fill="#DADADA" cx="274.207" cy="139.479" r="2.5"/>
	</g>
	<g>
		<circle fill="#DADADA" cx="281.707" cy="136.979" r="2.5"/>
	</g>
	<g>
		<circle fill="#DADADA" cx="288.09" cy="132.313" r="2.5"/>
	</g>
	<g>
		<circle fill="#DADADA" cx="282.424" cy="127.313" r="2.5"/>
	</g>
	<g>
		<circle fill="#DADADA" cx="260.932" cy="172.459" r="2.5"/>
	</g>
	<g>
		<circle fill="#DADADA" cx="258.432" cy="180.313" r="2.5"/>
	</g>
	<g>
		<circle fill="#DADADA" cx="265.932" cy="177.813" r="2.5"/>
	</g>
	<g>
		<circle fill="#DADADA" cx="272.315" cy="173.146" r="2.5"/>
	</g>
	<g>
		<circle fill="#DADADA" cx="266.649" cy="168.146" r="2.5"/>
	</g>
	<g>
		<circle fill="#DADADA" cx="278.599" cy="153.292" r="2.5"/>
	</g>
	<g>
		<circle fill="#DADADA" cx="276.099" cy="161.146" r="2.5"/>
	</g>
	<g>
		<circle fill="#DADADA" cx="283.599" cy="158.646" r="2.5"/>
	</g>
	<g>
		<circle fill="#DADADA" cx="289.982" cy="153.979" r="2.5"/>
	</g>
	<g>
		<circle fill="#DADADA" cx="284.315" cy="148.979" r="2.5"/>
	</g>
	<g>
		<circle fill="#DADADA" cx="224.991" cy="187.125" r="2.5"/>
	</g>
	<g>
		<circle fill="#DADADA" cx="222.491" cy="194.979" r="2.5"/>
	</g>
	<g>
		<circle fill="#DADADA" cx="229.991" cy="192.479" r="2.5"/>
	</g>
	<g>
		<circle fill="#DADADA" cx="236.374" cy="187.813" r="2.5"/>
	</g>
	<g>
		<circle fill="#DADADA" cx="230.707" cy="182.813" r="2.5"/>
	</g>
	<g>
		<circle fill="#DADADA" cx="242.657" cy="167.959" r="2.5"/>
	</g>
	<g>
		<circle fill="#DADADA" cx="240.157" cy="175.813" r="2.5"/>
	</g>
	<g>
		<circle fill="#DADADA" cx="247.657" cy="173.313" r="2.5"/>
	</g>
	<g>
		<circle fill="#DADADA" cx="254.04" cy="168.646" r="2.5"/>
	</g>
	<g>
		<circle fill="#DADADA" cx="248.374" cy="163.646" r="2.5"/>
	</g>
	<g>
		<circle fill="#DADADA" cx="206.728" cy="176.459" r="2.5"/>
	</g>
	<g>
		<circle fill="#DADADA" cx="204.228" cy="184.313" r="2.5"/>
	</g>
	<g>
		<circle fill="#DADADA" cx="211.728" cy="181.813" r="2.5"/>
	</g>
	<g>
		<circle fill="#DADADA" cx="218.111" cy="177.146" r="2.5"/>
	</g>
	<g>
		<circle fill="#DADADA" cx="212.445" cy="172.146" r="2.5"/>
	</g>
	<g>
		<circle fill="#DADADA" cx="224.395" cy="157.292" r="2.5"/>
	</g>
	<g>
		<circle fill="#DADADA" cx="221.895" cy="165.146" r="2.5"/>
	</g>
	<g>
		<circle fill="#DADADA" cx="229.395" cy="162.646" r="2.5"/>
	</g>
	<g>
		<circle fill="#DADADA" cx="235.778" cy="157.979" r="2.5"/>
	</g>
	<g>
		<circle fill="#DADADA" cx="230.111" cy="152.979" r="2.5"/>
	</g>
	<g>
		<circle fill="#DADADA" cx="195.445" cy="165.105" r="2.5"/>
	</g>
	<g>
		<circle fill="#DADADA" cx="192.945" cy="172.959" r="2.5"/>
	</g>
	<g>
		<circle fill="#DADADA" cx="200.445" cy="170.459" r="2.5"/>
	</g>
	<g>
		<circle fill="#DADADA" cx="206.828" cy="165.792" r="2.5"/>
	</g>
	<g>
		<circle fill="#DADADA" cx="201.161" cy="160.792" r="2.5"/>
	</g>
	<g>
		<circle fill="#DADADA" cx="213.111" cy="145.938" r="2.5"/>
	</g>
	<g>
		<circle fill="#DADADA" cx="210.611" cy="153.792" r="2.5"/>
	</g>
	<g>
		<circle fill="#DADADA" cx="218.111" cy="151.292" r="2.5"/>
	</g>
	<g>
		<circle fill="#DADADA" cx="224.495" cy="146.625" r="2.5"/>
	</g>
	<g>
		<circle fill="#DADADA" cx="218.828" cy="141.625" r="2.5"/>
	</g>
	<g>
		<circle fill="#DADADA" cx="109.417" cy="120.229" r="2.5"/>
	</g>
	<g>
		<circle fill="#DADADA" cx="111.917" cy="110.979" r="2.5"/>
	</g>
	<circle fill="#DADADA" cx="74.447" cy="128.604" r="2.5"/>
	<circle fill="#DADADA" cx="71.947" cy="137.854" r="2.5"/>
	<g>
		<circle fill="#DADADA" cx="90.555" cy="131.104" r="2.5"/>
	</g>
	<g>
		<circle fill="#DADADA" cx="82.28" cy="135.354" r="2.5"/>
	</g>
	<g>
		<circle fill="#DADADA" cx="84.78" cy="126.104" r="2.5"/>
	</g>
</g>
<g id="cercle">
	<ellipse fill="none" stroke="#FFFFFF" stroke-miterlimit="10" cx="78.467" cy="143.089" rx="54.502" ry="64.5"/>
	<ellipse fill="none" stroke="#FFFFFF" stroke-miterlimit="10" cx="240.157" cy="145.823" rx="54.502" ry="64.5"/>
</g>
<g id="titre">
	<rect x="5.977" y="6.992" fill="none" width="313.961" height="8.508"/>
	
		<text id="title_1_" transform="matrix(1 0 0 1 5.9773 13.6692)" fill="#FFFFFF" font-family="'Montserrat-Regular'" font-size="9px">En 2014, sur 1 000 personnes résidant en France...</text>
</g>
</svg>
