<?xml version="1.0" encoding="UTF-8"?>
<?xml-stylesheet type="text/css" href="../css/svg.css" ?>

<svg id="svg-04-section3"
	 viewBox="0 0 425.2 652"
	 width="425.2" height="652"
     xmlns="http://www.w3.org/2000/svg">		

<style type="text/css">
	.st0{fill:#333333;}
	.st1{font-family:'HelveticaNeueLTStd-Cn';}
	.st2{font-size:7px;}
	.st3{fill:none;stroke:#DCDCDC;stroke-width:0.3;stroke-linejoin:round;stroke-miterlimit:10;}
	.st4{display:none;}
	.st5{display:inline;fill:none;stroke:#404040;stroke-width:0.3;stroke-linejoin:round;stroke-miterlimit:10;}
	.st6{fill:none;stroke:#DCDCDC;stroke-width:0.5;stroke-linejoin:round;stroke-miterlimit:10;}
	.st7{fill:#E89D3F;}
	.st8{fill:#10524D;stroke:#B5C0C3;stroke-width:0.5;}
	.st9{fill:#27A199;}
	.st10{fill:#AD6016;}
	.st11{fill:#693E0F;}
	.st12{fill:#27A199;stroke:#B5C0C3;stroke-width:0.5;}
	.st13{fill:#FAD8AF;stroke:#FAD8AF;stroke-width:0.5;}
	.st14{fill:#FAD8AF;stroke:#B5C0C3;stroke-width:0.5;}
	.st15{fill:#AEDBDE;stroke:#B5C0C3;stroke-width:0.5;}
	.st16{fill:#E89D3F;stroke:#B5C0C3;stroke-width:0.5;}
	.st17{fill:#693E0F;stroke:#B5C0C3;stroke-width:0.5;}
	.st18{fill:#AD6016;stroke:#B5C0C3;stroke-width:0.5;}
	.st19{fill:none;stroke:#333333;stroke-width:1.07;stroke-linejoin:round;stroke-miterlimit:10;}
	.st20{fill:#FFFFFF;}
	.st21{font-family:'HelveticaNeueLTStd-LtCn';}
	.st22{font-size:6px;}
	.st23{fill:#010202;}
	.st24{fill:none;stroke:#404040;stroke-width:0.3;stroke-linejoin:round;stroke-miterlimit:10;}
	.st25{fill:none;}
	.st26{font-family:'Chalet-NewYorkNineteenSixty';}
	.st27{font-family:'Chalet-LondonNineteenSixty';}
	.st28{fill:#FAD8AF;}
	.st29{fill:#AEDBDE;}
	.st30{fill:#10524D;}
	.st31{font-family:'HelveticaNeueLTStd-MdCn';}
	.st32{font-size:8px;}
	.st33{fill:none;stroke:#B5C0C3;stroke-width:0.5;}
	.st34{fill:none;stroke:#B5C0C3;stroke-width:0.3;}
	.st35{fill:none;stroke:#B5C0C3;stroke-width:0.3;stroke-dasharray:0.9929,0.9929;}
	.st36{fill:none;stroke:#B5C0C3;stroke-width:0.3;stroke-dasharray:1.0177,1.0177;}
	.st37{fill:none;stroke:#B5C0C3;stroke-width:0.3;stroke-dasharray:0.9838,0.9838;}
	.st38{fill:none;stroke:#B5C0C3;stroke-width:0.3;stroke-dasharray:0.9856,0.9856;}
	.st39{font-size:8.5px;}
</style>
<g id="CARTE">
	<g id="Supplément">
	</g>
	<g id="leg_x5F_09_x5F_14">
	</g>
	<g id="leg_x5F_99_x5F_09">
	</g>
	<g id="leg_x5F_90_x5F_99">
	</g>
	<g id="leg_x5F_82_x5F_90">
	</g>
	<g id="leg_x5F_75_x5F_82">
	</g>
	<g id="leg_x5F_68_x5F_75">
	</g>
	<g id="annee">
		<text transform="matrix(1 0 0 1 100.0093 473.3185)" class="st0 st1 st2">1968-1975</text>
		<text transform="matrix(1 0 0 1 153.8675 473.3185)" class="st0 st1 st2">1975-1982</text>
		<text transform="matrix(1 0 0 1 207.7258 473.3185)" class="st0 st1 st2">1982-1990</text>
		<text transform="matrix(1 0 0 1 261.5843 473.3185)" class="st0 st1 st2">1990-1999</text>
		<text transform="matrix(1 0 0 1 315.4428 473.3185)" class="st0 st1 st2">1999-2009</text>
		<text transform="matrix(1 0 0 1 369.3005 473.3185)" class="st0 st1 st2">2009-2014</text>
		<text transform="matrix(1 0 0 1 100.0093 39.0156)" class="st0 st1 st2">1968-1975</text>
		<text transform="matrix(1 0 0 1 153.8675 39.0156)" class="st0 st1 st2">1975-1982</text>
		<text transform="matrix(1 0 0 1 207.7258 39.0156)" class="st0 st1 st2">1982-1990</text>
		<text transform="matrix(1 0 0 1 261.5843 39.0156)" class="st0 st1 st2">1990-1999</text>
		<text transform="matrix(1 0 0 1 315.4428 39.0156)" class="st0 st1 st2">1999-2009</text>
		<text transform="matrix(1 0 0 1 369.3005 39.0156)" class="st0 st1 st2">2009-2014</text>
		<text transform="matrix(1 0 0 1 100.0094 523.9974)" class="st0 st1 st2">1966-1978</text>
		<text transform="matrix(1 0 0 1 144.8913 523.9974)" class="st0 st1 st2">1978-1985</text>
		<text transform="matrix(1 0 0 1 189.7732 523.9974)" class="st0 st1 st2">1985-1991</text>
		<text transform="matrix(1 0 0 1 234.6548 523.9974)" class="st0 st1 st2">1991-1997</text>
		<text transform="matrix(1 0 0 1 279.5371 523.9974)" class="st0 st1 st2">1997-2002</text>
		<text transform="matrix(1 0 0 1 324.4186 523.9974)" class="st0 st1 st2">2002-2007</text>
		<text transform="matrix(1 0 0 1 369.3004 523.9974)" class="st0 st1 st2">2007-2012</text>
	</g>
	<g id="label">
		<g>
			<text transform="matrix(1 0 0 1 58.6631 67.0697)" class="st0 st1 st2">Corse</text>
		</g>
		<g>
			<text transform="matrix(1 0 0 1 49.4512 91.1645)" class="st0 st1 st2">Occitanie</text>
		</g>
		<g>
			<text transform="matrix(1 0 0 1 25.4907 115.6017)" class="st0 st1 st2">Nouvelle Aquitaine</text>
		</g>
		<g>
			<text transform="matrix(1 0 0 1 50.1094 139.3556)" class="st0 st1 st2">Bretagne</text>
		</g>
		<g>
			<text transform="matrix(1 0 0 1 32.5186 163.4485)" class="st0 st1 st2">Pays de la Loire</text>
		</g>
		<g>
			<text transform="matrix(1 0 0 1 13.6958 187.5446)" class="st0 st1 st2">Auvergne-Rhône-Alpes</text>
		</g>
		<g>
			<text transform="matrix(1 0 0 1 -3.073541e-02 211.7044)" class="st0 st1 st2">Provence-Alpes-Côte-d’Azur</text>
		</g>
		<g>
			<text transform="matrix(1 0 0 1 23.6919 235.732)" class="st0 st1 st2">Centre-Val de Loire</text>
		</g>
		<g>
			<text transform="matrix(1 0 0 1 2.9533 283.923)" class="st0 st1 st2">Bourgogne-Franche-Comté</text>
		</g>
		<g>
			<text transform="matrix(1 0 0 1 45.1973 308.0158)" class="st0 st1 st2">Normandie</text>
		</g>
		<g>
			<text transform="matrix(1 0 0 1 48.4294 332.1102)" class="st0 st1 st2">Grand Est</text>
		</g>
		<g>
			<text transform="matrix(1 0 0 1 29.7678 354.8293)" class="st0 st1 st2">Hauts-de-France</text>
		</g>
		<g>
			<text transform="matrix(1 0 0 1 38.5739 380.5274)" class="st0 st1 st2">Île-de-France</text>
		</g>
		<g>
			<text transform="matrix(1 0 0 1 44.5373 404.3943)" class="st0 st1 st2">La Réunion</text>
		</g>
		<g>
			<text transform="matrix(1 0 0 1 42.8503 428.5961)" class="st0 st1 st2">Guadeloupe</text>
		</g>
		<g>
			<text transform="matrix(1 0 0 1 45.8254 452.5835)" class="st0 st1 st2">Martinique</text>
		</g>
		<g>
			<text transform="matrix(1 0 0 1 54.1339 259.8268)" class="st0 st1 st2">Guyane</text>
		</g>
	</g>
	<g id="h_x5F_axis">
		<g id="major_1_">
			<line class="st3" x1="77.7" y1="89" x2="423.2" y2="89"/>
			<line class="st3" x1="77.7" y1="185.4" x2="423.2" y2="185.4"/>
			<line class="st3" x1="77.7" y1="233.6" x2="423.2" y2="233.6"/>
			<line class="st3" x1="77.7" y1="281.8" x2="423.2" y2="281.8"/>
			<line class="st3" x1="77.7" y1="329.9" x2="423.2" y2="329.9"/>
			<line class="st3" x1="77.7" y1="378.1" x2="423.2" y2="378.1"/>
			<line class="st3" x1="77.7" y1="426.3" x2="423.2" y2="426.3"/>
			<line class="st3" x1="77.7" y1="137.2" x2="423.2" y2="137.2"/>
		</g>
		<g id="minor_1_">
			<line class="st3" x1="77.7" y1="64.9" x2="423.2" y2="64.9"/>
			<line class="st3" x1="77.7" y1="161.3" x2="423.2" y2="161.3"/>
			<line class="st3" x1="77.7" y1="209.5" x2="423.2" y2="209.5"/>
			<line class="st3" x1="77.7" y1="257.7" x2="423.2" y2="257.7"/>
			<line class="st3" x1="77.7" y1="305.9" x2="423.2" y2="305.9"/>
			<line class="st3" x1="77.7" y1="354" x2="423.2" y2="354"/>
			<line class="st3" x1="77.7" y1="402.2" x2="423.2" y2="402.2"/>
			<line class="st3" x1="77.7" y1="450.4" x2="423.2" y2="450.4"/>
			<line class="st3" x1="77.7" y1="113.1" x2="423.2" y2="113.1"/>
		</g>
		<line class="st3" x1="77.7" y1="501.4" x2="423.2" y2="501.4"/>
	</g>
	<g id="v_x5F_axis">
		<g id="minor" class="st4">
			<line class="st5" x1="141.6" y1="29.9" x2="141.6" y2="452.8"/>
			<line class="st5" x1="89.1" y1="29.9" x2="89.1" y2="452.8"/>
			<line class="st5" x1="195.5" y1="29.9" x2="195.5" y2="452.8"/>
			<line class="st5" x1="249.3" y1="29.9" x2="249.3" y2="452.8"/>
			<line class="st5" x1="303.2" y1="29.9" x2="303.2" y2="452.8"/>
			<line class="st5" x1="357" y1="29.9" x2="357" y2="452.8"/>
			<line class="st5" x1="411" y1="29.9" x2="411" y2="452.8"/>
		</g>
		<g id="major">
			<line class="st6" x1="114.7" y1="46.1" x2="114.7" y2="463.6"/>
			<line class="st6" x1="168.5" y1="46.1" x2="168.5" y2="463.6"/>
			<line class="st6" x1="222.4" y1="46.1" x2="222.4" y2="463.6"/>
			<line class="st6" x1="276.3" y1="46.1" x2="276.3" y2="463.6"/>
			<line class="st6" x1="330.1" y1="46.1" x2="330.1" y2="463.6"/>
			<line class="st6" x1="384" y1="46.1" x2="384" y2="463.6"/>
		</g>
		<g id="major_2_">
			<line class="st6" x1="114.7" y1="488.4" x2="114.7" y2="512.4"/>
			<line class="st6" x1="159.6" y1="488.4" x2="159.6" y2="512.4"/>
			<line class="st6" x1="204.4" y1="488.4" x2="204.4" y2="512.4"/>
			<line class="st6" x1="249.3" y1="488.4" x2="249.3" y2="512.4"/>
			<line class="st6" x1="294.2" y1="488.4" x2="294.2" y2="512.4"/>
			<line class="st6" x1="339.1" y1="488.4" x2="339.1" y2="512.4"/>
			<line class="st6" x1="384" y1="488.4" x2="384" y2="512.4"/>
		</g>
	</g>
	<g id="cercle_x5F_prop">
		<g id="mayotte">
			<rect id="_x36_8_x5F_75_1_" x="113.3" y="500" class="st7" width="2.8" height="2.8"/>
			<rect id="_x30_9_x5F_14_2_" x="334" y="496.4" class="st8" width="10.1" height="10.1"/>
			<rect id="_x30_9_x5F_14_3_" x="380.4" y="497.8" class="st9" width="7.2" height="7.2"/>
			<rect id="_x39_9_x5F_09_1_" x="290.8" y="498" class="st10" width="6.9" height="6.9"/>
			<rect id="_x39_0_x5F_99_1_" x="243.3" y="495.4" class="st11" width="12.1" height="12.1"/>
			<rect id="_x38_2_x5F_90_1_" x="199.2" y="496.2" class="st11" width="10.5" height="10.5"/>
			<rect id="_x37_5_x5F_82_1_" x="155.6" y="497.5" class="st11" width="8" height="8"/>
		</g>
		<g id="martinique">
			<rect id="_x30_9_x5F_14_24_" x="375.6" y="442" class="st8" width="16.8" height="16.8"/>
			<rect id="_x39_9_x5F_09_24_" x="325.6" y="445.9" class="st12" width="9.1" height="9.1"/>
			<rect id="_x39_0_x5F_99_26_" x="271.8" y="445.9" class="st12" width="8.9" height="8.9"/>
			<rect id="_x38_2_x5F_90_30_" x="221.7" y="449.7" class="st13" width="1.4" height="1.4"/>
			<rect id="_x37_5_x5F_82_25_" x="161.1" y="443" class="st8" width="14.9" height="14.9"/>
			<rect id="_x36_8_x5F_75_25_" x="105.1" y="440.8" class="st8" width="19.2" height="19.2"/>
		</g>
		<g id="guadeloupe">
			<rect id="_x30_9_x5F_14_33_" x="377.4" y="419.8" class="st8" width="13.2" height="13.2"/>
			<rect id="_x39_9_x5F_09_30_" x="324.1" y="420.5" class="st8" width="11.9" height="11.9"/>
			<rect id="_x39_0_x5F_99_34_" x="273.3" y="423.4" class="st12" width="6" height="6"/>
			<rect id="_x38_2_x5F_90_34_" x="220.1" y="424.2" class="st14" width="4.6" height="4.6"/>
			<rect id="_x37_5_x5F_82_34_" x="160.8" y="418.7" class="st8" width="15.5" height="15.5"/>
			<rect id="_x36_8_x5F_75_34_" x="104.3" y="414.2" class="st8" width="20.7" height="20.7"/>
		</g>
		<g id="ile_x5F_de_x5F_france">
			<rect id="_x30_9_x5F_14_9_" x="355.2" y="349.4" class="st8" width="57.5" height="57.5"/>
			<rect id="_x39_9_x5F_09_6_" x="309.6" y="357.6" class="st12" width="41.1" height="41.1"/>
			<rect id="_x39_0_x5F_99_5_" x="246.3" y="348.2" class="st8" width="59.8" height="59.8"/>
			<rect id="_x38_2_x5F_90_3_" x="212.4" y="368.2" class="st15" width="20" height="20"/>
			<rect id="_x37_5_x5F_82_6_" x="143.1" y="352.7" class="st12" width="50.9" height="50.9"/>
			<rect id="_x36_8_x5F_75_2_" x="98.9" y="362.4" class="st16" width="31.6" height="31.6"/>
		</g>
		<g id="la_x5F_reunion">
			<rect id="_x30_9_x5F_14_31_" x="375.2" y="393.4" class="st8" width="17.6" height="17.6"/>
			<rect id="_x39_9_x5F_09_28_" x="327.4" y="399.5" class="st14" width="5.5" height="5.5"/>
			<rect id="_x39_0_x5F_99_32_" x="270.7" y="396.7" class="st16" width="11" height="11"/>
			<rect id="_x38_2_x5F_90_32_" x="219.9" y="399.7" class="st14" width="5" height="5"/>
			<rect id="_x37_5_x5F_82_32_" x="159.8" y="393.5" class="st8" width="17.4" height="17.4"/>
			<rect id="_x36_8_x5F_75_31_" x="108.8" y="396.3" class="st8" width="11.8" height="11.8"/>
		</g>
		<g id="hauts_x5F_de_x5F_france">
			<rect id="_x30_9_x5F_14_11_" x="368.4" y="337.1" class="st12" width="31.1" height="31.1"/>
			<rect id="_x39_9_x5F_09_10_" x="312.3" y="334.8" class="st12" width="35.6" height="35.6"/>
			<rect id="_x39_0_x5F_99_11_" x="258.6" y="335" class="st12" width="35.3" height="35.3"/>
			<rect id="_x38_2_x5F_90_7_" x="203.5" y="333.8" class="st12" width="37.7" height="37.7"/>
			<rect id="_x37_5_x5F_82_11_" x="150.1" y="334.2" class="st12" width="37" height="37"/>
			<rect id="_x36_8_x5F_75_9_" x="99.4" y="337.3" class="st12" width="30.6" height="30.6"/>
		</g>
		<g id="grand_x5F_est">
			<rect id="_x30_9_x5F_14_29_" x="370.9" y="316.9" class="st12" width="26.1" height="26.1"/>
			<rect id="_x39_9_x5F_09_26_" x="321.8" y="321.7" class="st15" width="16.5" height="16.5"/>
			<rect id="_x39_0_x5F_99_30_" x="264.9" y="318.6" class="st12" width="22.7" height="22.7"/>
			<rect id="_x38_2_x5F_90_29_" x="204.5" y="312.1" class="st12" width="35.7" height="35.7"/>
			<rect id="_x37_5_x5F_82_30_" x="151.4" y="312.8" class="st12" width="34.2" height="34.2"/>
			<rect id="_x36_8_x5F_75_29_" x="105.9" y="321.2" class="st15" width="17.5" height="17.5"/>
		</g>
		<g id="normandie">
			<rect id="_x30_9_x5F_14_15_" x="377.6" y="299.5" class="st15" width="12.7" height="12.7"/>
			<rect id="_x39_9_x5F_09_12_" x="326" y="301.7" class="st15" width="8.3" height="8.3"/>
			<rect id="_x39_0_x5F_99_15_" x="267.7" y="297.3" class="st12" width="17.2" height="17.2"/>
			<rect id="_x38_2_x5F_90_14_" x="217.1" y="300.6" class="st15" width="10.5" height="10.5"/>
			<rect id="_x37_5_x5F_82_15_" x="162.8" y="300.1" class="st15" width="11.5" height="11.5"/>
			<rect id="_x36_8_x5F_75_14_" x="109.2" y="300.4" class="st15" width="11" height="11"/>
		</g>
		<g id="bourgogne_x5F_franche_x5F_comte">
		</g>
		<g id="guyane">
			<rect id="_x30_9_x5F_14_27_" x="383.8" y="257.4" class="st13" width="0.4" height="0.4"/>
			<rect id="_x39_0_x5F_99_28_" x="325.9" y="253.4" class="st17" width="8.5" height="8.5"/>
			<rect id="_x39_9_x5F_09_23_" x="270.8" y="252.3" class="st17" width="10.8" height="10.8"/>
			<rect id="_x38_2_x5F_90_27_" x="215.3" y="250.5" class="st17" width="14.2" height="14.2"/>
			<rect id="_x37_5_x5F_82_28_" x="163.9" y="253" class="st17" width="9.3" height="9.3"/>
			<rect id="_x36_8_x5F_75_27_" x="112.1" y="255.1" class="st17" width="5.1" height="5.1"/>
		</g>
		<g id="bourgogne_x5F_franche_x5F_comte_2_">
			<rect id="_x30_9_x5F_14_17_" x="378.8" y="276.6" class="st15" width="10.3" height="10.3"/>
			<rect id="_x39_9_x5F_09_14_" x="322.7" y="274.4" class="st16" width="14.8" height="14.8"/>
			<rect id="_x39_0_x5F_99_16_" x="270" y="275.5" class="st15" width="12.5" height="12.5"/>
			<rect id="_x38_2_x5F_90_16_" x="214.3" y="273.6" class="st12" width="16.3" height="16.3"/>
			<rect id="_x37_5_x5F_82_16_" x="163.2" y="276.5" class="st15" width="10.6" height="10.6"/>
			<rect id="_x36_8_x5F_75_15_" x="104.6" y="271.7" class="st16" width="20.1" height="20.1"/>
		</g>
		<g id="provence_x5F_alpes_x5F_cote_x5F_d_x5F_azur">
			<rect id="_x30_9_x5F_14_25_" x="374.3" y="199.8" class="st16" width="19.4" height="19.4"/>
			<rect id="_x39_9_x5F_09_21_" x="309" y="188.4" class="st18" width="42.3" height="42.3"/>
			<rect id="_x39_0_x5F_99_25_" x="258.5" y="191.8" class="st18" width="35.6" height="35.6"/>
			<rect id="_x38_2_x5F_90_25_" x="201.2" y="188.3" class="st18" width="42.4" height="42.4"/>
			<rect id="_x37_5_x5F_82_26_" x="144.2" y="185.2" class="st17" width="48.6" height="48.6"/>
			<rect id="_x36_8_x5F_75_24_" x="87.9" y="182.8" class="st17" width="53.6" height="53.6"/>
		</g>
		<g id="centre_x5F_val_x5F_de_x5F_loire">
			<rect id="_x30_9_x5F_14_13_" x="377.5" y="227.1" class="st16" width="12.9" height="12.9"/>
			<rect id="_x39_9_x5F_09_13_" x="321.8" y="225.2" class="st16" width="16.7" height="16.7"/>
			<rect id="_x39_0_x5F_99_12_" x="269.3" y="226.6" class="st16" width="13.9" height="13.9"/>
			<rect id="_x38_2_x5F_90_12_" x="211.5" y="222.7" class="st16" width="21.7" height="21.7"/>
			<rect id="_x37_5_x5F_82_12_" x="155.7" y="220.7" class="st18" width="25.7" height="25.7"/>
			<rect id="_x36_8_x5F_75_11_" x="100" y="218.9" class="st18" width="29.3" height="29.3"/>
		</g>
		<g id="auvergne_x5F_rhone_x5F_alpes">
			<rect id="_x30_9_x5F_14_22_" x="362.8" y="164.2" class="st16" width="42.4" height="42.4"/>
			<rect id="_x39_9_x5F_09_19_" x="309.7" y="165" class="st16" width="40.7" height="40.7"/>
			<rect id="_x39_0_x5F_99_23_" x="266.2" y="175.3" class="st14" width="20.1" height="20.1"/>
			<rect id="_x38_2_x5F_90_23_" x="207.2" y="170.2" class="st16" width="30.3" height="30.3"/>
			<rect id="_x37_5_x5F_82_23_" x="156" y="172.9" class="st16" width="25" height="25"/>
			<rect id="_x36_8_x5F_75_22_" x="96.3" y="167" class="st16" width="36.9" height="36.9"/>
		</g>
		<g id="pays_x5F_de_x5F_la_x5F_loire">
			<rect id="_x30_9_x5F_14_8_" x="367.9" y="145.2" class="st18" width="32.2" height="32.2"/>
			<rect id="_x39_0_x5F_99_8_" x="265.9" y="151" class="st16" width="20.7" height="20.7"/>
			<rect id="_x38_2_x5F_90_8_" x="217.7" y="156.6" class="st14" width="9.5" height="9.5"/>
			<rect id="_x37_5_x5F_82_7_" x="159.1" y="151.9" class="st16" width="18.8" height="18.8"/>
			<rect id="_x36_8_x5F_75_7_" x="106" y="152.6" class="st16" width="17.4" height="17.4"/>
			<rect id="pays_x5F_loire_x5F_99_x5F_09_1_" x="313.6" y="144.8" class="st18" width="33" height="33"/>
		</g>
		<g id="bretagne">
			<rect id="_x30_9_x5F_14_20_" x="368.1" y="121.3" class="st18" width="31.7" height="31.7"/>
			<rect id="_x39_9_x5F_09_18_" x="311.9" y="118.9" class="st18" width="36.5" height="36.5"/>
			<rect id="_x39_0_x5F_99_21_" x="264.7" y="125.7" class="st16" width="23" height="23"/>
			<rect id="_x38_2_x5F_90_21_" x="213.5" y="128.3" class="st16" width="17.8" height="17.8"/>
			<rect id="_x37_5_x5F_82_21_" x="156.7" y="125.3" class="st16" width="23.7" height="23.7"/>
			<rect id="_x36_8_x5F_75_20_" x="105.2" y="127.7" class="st16" width="18.9" height="18.9"/>
		</g>
		<g id="occitanie">
			<rect id="_x30_9_x5F_14_6_" x="357.8" y="62.9" class="st17" width="52.3" height="52.3"/>
			<rect id="_x39_9_x5F_09_4_" x="300.1" y="59" class="st17" width="60" height="60"/>
			<rect id="_x39_0_x5F_99_6_" x="254" y="66.7" class="st18" width="44.6" height="44.6"/>
			<rect id="_x38_2_x5F_90_15_" x="198.5" y="65.1" class="st17" width="47.7" height="47.7"/>
			<rect id="_x37_5_x5F_82_10_" x="147" y="67.5" class="st18" width="43" height="43"/>
			<rect id="_x36_8_x5F_75_8_" x="97.8" y="72.1" class="st18" width="33.9" height="33.9"/>
		</g>
		<g id="nouvelle_x5F_aquitaine">
			<rect id="_x39_0_x5F_99_19_" x="258.8" y="96" class="st16" width="34.9" height="34.9"/>
			<rect id="_x38_2_x5F_90_19_" x="205" y="96" class="st16" width="34.8" height="34.8"/>
			<rect id="_x37_5_x5F_82_19_" x="151" y="95.9" class="st16" width="35" height="35"/>
			<rect id="_x36_8_x5F_75_18_" x="102.7" y="102.9" class="st16" width="24" height="24"/>
			<rect id="nou_x5F_aqui_x5F_09_x5F_14_1_" x="360.6" y="90.1" class="st18" width="46.7" height="46.7"/>
			<rect id="nou_x5F_aqui_x5F_99_x5F_09_1_" x="303.5" y="86.8" class="st17" width="53.3" height="53.3"/>
		</g>
		<g id="corse">
			<rect id="_x30_9_x5F_14_4_" x="376.3" y="57.2" class="st17" width="15.4" height="15.4"/>
			<rect id="_x39_9_x5F_09_3_" x="321.6" y="56.3" class="st17" width="17.1" height="17.1"/>
			<rect id="_x39_0_x5F_99_3_" x="272.2" y="60.9" class="st16" width="8.1" height="8.1"/>
			<rect id="_x38_2_x5F_90_11_" x="218.2" y="60.7" class="st18" width="8.4" height="8.4"/>
			<rect id="_x37_5_x5F_82_5_" x="162.7" y="59.1" class="st17" width="11.7" height="11.7"/>
			<rect id="_x36_8_x5F_75_3_" x="108.2" y="58.4" class="st17" width="13" height="13"/>
		</g>
	</g>
	<g id="supplement">
	</g>
	<g id="ticks">
		<line class="st19" x1="77.7" y1="64.9" x2="79.7" y2="64.9"/>
		<line class="st19" x1="77.7" y1="89" x2="79.7" y2="89"/>
		<line class="st19" x1="77.7" y1="113.1" x2="79.7" y2="113.1"/>
		<line class="st19" x1="77.7" y1="137.2" x2="79.7" y2="137.2"/>
		<line class="st19" x1="77.7" y1="161.3" x2="79.7" y2="161.3"/>
		<line class="st19" x1="77.7" y1="185.4" x2="79.7" y2="185.4"/>
		<line class="st19" x1="77.7" y1="209.5" x2="79.7" y2="209.5"/>
		<line class="st19" x1="77.7" y1="233.6" x2="79.7" y2="233.6"/>
		<line class="st19" x1="77.7" y1="329.9" x2="79.7" y2="329.9"/>
		<line class="st19" x1="77.7" y1="281.8" x2="79.7" y2="281.8"/>
		<line class="st19" x1="77.7" y1="305.9" x2="79.7" y2="305.9"/>
		<line class="st19" x1="77.7" y1="354" x2="79.7" y2="354"/>
		<line class="st19" x1="77.7" y1="378.1" x2="79.7" y2="378.1"/>
		<line class="st19" x1="77.7" y1="402.2" x2="79.7" y2="402.2"/>
		<line class="st19" x1="77.7" y1="426.3" x2="79.7" y2="426.3"/>
		<line class="st19" x1="77.7" y1="450.4" x2="79.7" y2="450.4"/>
		<line class="st19" x1="77.7" y1="257.7" x2="79.7" y2="257.7"/>
	</g>
	<g id="value">
		<text transform="matrix(1 0 0 1 105.7565 452.2975)" class="st20 st21 st22">-1,75 %</text>
		<text transform="matrix(1 0 0 1 107.1965 426.4311)" class="st20 st21 st22">-2,1 %</text>
		<text transform="matrix(1 0 0 1 107.1962 394.7095)" class="st23 st21 st22">-0,5 %</text>
		<text transform="matrix(1 0 0 1 151.2772 495.6675)" class="st23 st21 st22">+1,7 %</text>
		<text transform="matrix(1 0 0 1 196.1592 494.9452)" class="st21 st22">+2,1 %</text>
		<text transform="matrix(1 0 0 1 241.0408 493.7582)" class="st21 st22">+2,0 %</text>
		<text transform="matrix(1 0 0 1 161.0545 404.1085)" class="st20 st21 st22">-0,9 %</text>
		<text transform="matrix(1 0 0 1 331.6061 494.4036)" class="st21 st22">-0,9 %</text>
		<text transform="matrix(1 0 0 1 268.7708 380.5276)" class="st20 st21 st22">-0,5 %</text>
		<text transform="matrix(1 0 0 1 376.4874 380.0136)" class="st20 st21 st22">-0,4 %</text>
		<text transform="matrix(1 0 0 1 161.0546 426.7172)" class="st20 st21 st22">-1,2 %</text>
		<text transform="matrix(1 0 0 1 322.6294 416.6815)" class="st23 st21 st22">-0,6 %</text>
		<text transform="matrix(1 0 0 1 376.4877 416.6814)" class="st23 st21 st22">-0,7 %</text>
		<text transform="matrix(1 0 0 1 376.4877 404.1079)" class="st20 st21 st22">-0,6 %</text>
		<text transform="matrix(1 0 0 1 161.0546 452.5838)" class="st20 st21 st22">-1,0 %</text>
		<text transform="matrix(1 0 0 1 106.3951 253.3987)" class="st23 st21 st22">+0,8 %</text>
		<text transform="matrix(1 0 0 1 160.2536 251.4753)" class="st23 st21 st22">+2,1 %</text>
		<text transform="matrix(1 0 0 1 214.1119 249.2989)" class="st23 st21 st22">+3,5 %</text>
		<text transform="matrix(1 0 0 1 267.9699 250.5493)" class="st23 st21 st22">+0,8 %</text>
		<text transform="matrix(1 0 0 1 321.8286 251.4757)" class="st23 st21 st22">+1,0 %</text>
		<text transform="matrix(1 0 0 1 376.4881 452.297)" class="st20 st21 st22">-1,1 %</text>
		<g>
			<text transform="matrix(1 0 0 1 52.7136 503.6071)" class="st0 st1 st2">Mayotte</text>
		</g>
		<line class="st24" x1="77.7" y1="483.1" x2="423.2" y2="483.1"/>
		<line class="st24" x1="77.7" y1="484.2" x2="423.2" y2="484.2"/>
		<line class="st19" x1="77.7" y1="501.4" x2="79.7" y2="501.4"/>
		<text transform="matrix(1 0 0 1 106.3953 56.9304)" class="st23 st21 st22">+1,2 %</text>
		<text transform="matrix(1 0 0 1 106.3954 211.7045)" class="st20 st21 st22">+1,3 %</text>
		<text transform="matrix(1 0 0 1 158.8135 209.5411)" class="st20 st21 st22">+0,95 %</text>
		<text transform="matrix(1 0 0 1 160.2534 56.9304)" class="st23 st21 st22">+0,9 %</text>
		<text transform="matrix(1 0 0 1 321.8284 66.7855)" class="st20 st21 st22">+1,6 %</text>
		<text transform="matrix(1 0 0 1 214.1117 90.8799)" class="st20 st21 st22">+0,8 %</text>
		<text transform="matrix(1 0 0 1 321.8282 111.9419)" class="st20 st21 st22">+0,8 %</text>
		<text transform="matrix(1 0 0 1 321.8283 84.4216)" class="st20 st21 st22">+1,1 %</text>
		<text transform="matrix(1 0 0 1 374.2469 87.6263)" class="st20 st21 st22">+0,75 %</text>
		<text transform="matrix(1 0 0 1 375.6865 66.7855)" class="st20 st21 st22">+1,2 %</text>
	</g>
</g>
<g id="HABILLAGE">
	<g id="Source">
		<rect x="151.4" y="646.4" class="st25" width="273.8" height="5.2"/>
		<text transform="matrix(1 0 0 1 157.7421 650.8621)"><tspan x="0" y="0" class="st0 st26 st22">Source : </tspan><tspan x="25.1" y="0" class="st0 st27 st22">Insee RP, 1968-2014 </tspan><tspan x="81" y="0" class="st27 st22">•</tspan><tspan x="82.9" y="0" class="st0 st27 st22"> </tspan><tspan x="84.6" y="0" class="st0 st26 st22">Traitement :</tspan><tspan x="118.1" y="0" class="st0 st27 st22"> Observatoire des territoires</tspan><tspan x="195.7" y="0" class="st0 st26 st22"> </tspan><tspan x="197.5" y="0" class="st27 st22">•</tspan><tspan x="199.4" y="0" class="st0 st27 st22"> </tspan><tspan x="201.2" y="0" class="st0 st26 st22">Réalisation :</tspan><tspan x="235.6" y="0" class="st0 st27 st22"> CGET 2018</tspan></text>
	</g>
	<g id="Légende">
		<g id="Focus">
		</g>
		<g id="chiffre_x5F_rectangle">
			<text transform="matrix(1 0 0 1 7.4161 605.8553)" class="st0 st21 st2">-2,1</text>
			<text transform="matrix(1 0 0 1 30.1166 605.8551)" class="st0 st21 st2">-0,4</text>
			<text transform="matrix(1 0 0 1 53.0768 605.8551)" class="st0 st21 st2">-0,1</text>
			<text transform="matrix(1 0 0 1 79.7232 605.8551)" class="st0 st21 st2">0</text>
			<text transform="matrix(1 0 0 1 97.8306 605.8551)" class="st0 st21 st2">+0,1</text>
			<text transform="matrix(1 0 0 1 120.7909 605.8551)" class="st0 st21 st2">+0,4</text>
			<text transform="matrix(1 0 0 1 143.7519 605.8551)" class="st0 st21 st2">+0,7</text>
			<text transform="matrix(1 0 0 1 165.8738 605.8551)" class="st0 st21 st2">+3,5</text>
		</g>
		<g id="rectangle_x5F_bronze">
			<rect x="129.5" y="589.5" class="st10" width="18.7" height="7.1"/>
			<rect x="152.4" y="589.5" class="st11" width="18.7" height="7.1"/>
			<rect x="106.5" y="589.5" class="st7" width="18.7" height="7.1"/>
			<rect x="83.5" y="589.5" class="st28" width="18.7" height="7.1"/>
			<rect x="60.6" y="589.5" class="st29" width="18.7" height="7.1"/>
			<rect x="37.6" y="589.5" class="st9" width="18.7" height="7.1"/>
			<rect x="14.6" y="589.5" class="st30" width="18.7" height="7.1"/>
		</g>
		<rect x="4.5" y="541.1" class="st25" width="190.3" height="25.5"/>
		<text transform="matrix(1 0 0 1 4.5121 546.8455)"><tspan x="0" y="0" class="st0 st31 st32">Taux d’évolution de la population due au solde migratoire </tspan><tspan x="0" y="9" class="st0 st31 st32">apparent entre 1968 et 2014 (moyenne annuelle)</tspan><tspan x="0" y="17" class="st0 st21 st2">En %, par région</tspan></text>
		<rect x="231.3" y="541.1" class="st25" width="167.4" height="16.8"/>
		<text transform="matrix(1 0 0 1 231.2838 546.845)"><tspan x="0" y="0" class="st0 st31 st32">Solde migratoire annuel moyen</tspan><tspan x="0" y="9" class="st0 st21 st2">En valeur absolue</tspan></text>
		<g id="cercle_x5F_prop_1_">
			<rect x="270.8" y="589.9" class="st33" width="40.4" height="40.4"/>
			<rect x="281.9" y="612.2" class="st33" width="18.1" height="18.1"/>
			<rect x="286.9" y="622.2" class="st33" width="8.1" height="8.1"/>
			<g>
				<text transform="matrix(1 0 0 1 344.0798 572.4727)" class="st0 st21 st2">55 175</text>
			</g>
			<g>
				<text transform="matrix(1 0 0 1 344.0801 592.0787)" class="st0 st21 st2">25 000</text>
			</g>
			<g>
				<text transform="matrix(1 0 0 1 344.0804 614.3971)" class="st0 st21 st2">5 000</text>
			</g>
			<g>
				<text transform="matrix(1 0 0 1 344.0797 624.3777)" class="st0 st21 st2">1 000</text>
			</g>
			<rect x="261" y="570.3" class="st33" width="60" height="60"/>
			<g>
				<g>
					<line class="st34" x1="295" y1="622.2" x2="295.5" y2="622.2"/>
					<line class="st35" x1="296.5" y1="622.2" x2="339.7" y2="622.2"/>
					<line class="st34" x1="340.2" y1="622.2" x2="340.7" y2="622.2"/>
				</g>
			</g>
			<g>
				<g>
					<line class="st34" x1="300" y1="612.2" x2="300.5" y2="612.2"/>
					<line class="st36" x1="301.5" y1="612.2" x2="339.7" y2="612.2"/>
					<line class="st34" x1="340.2" y1="612.2" x2="340.7" y2="612.2"/>
				</g>
			</g>
			<g>
				<g>
					<line class="st34" x1="311.2" y1="589.9" x2="311.7" y2="589.9"/>
					<line class="st37" x1="312.6" y1="589.9" x2="339.7" y2="589.9"/>
					<line class="st34" x1="340.2" y1="589.9" x2="340.7" y2="589.9"/>
				</g>
			</g>
			<g>
				<g>
					<line class="st34" x1="321" y1="570.3" x2="321.5" y2="570.3"/>
					<line class="st38" x1="322.4" y1="570.3" x2="339.7" y2="570.3"/>
					<line class="st34" x1="340.2" y1="570.3" x2="340.7" y2="570.3"/>
				</g>
			</g>
		</g>
	</g>
	<g id="Titre">
		<rect x="0" y="0.8" class="st25" width="405.2" height="19.3"/>
		<text transform="matrix(1 0 0 1 -3.065148e-02 7.1409)"><tspan x="0" y="0" class="st0 st26 st39">La croissance migratoire des régions de l&apos;Ouest se renforce quand elle diminue en Île-de-France, </tspan><tspan x="0" y="10" class="st0 st26 st39">Paca et Centre-Val de Loire</tspan></text>
	</g>
</g>
</svg>