<?xml version="1.0" encoding="UTF-8"?>
<?xml-stylesheet type="text/css" href="../css/svg.css" ?>

<svg id="svg-05-section3"
	 viewBox="0 0 425.2 303.3"
	 width="425.2" height="303.3"
     xmlns="http://www.w3.org/2000/svg">		

<g id="GABARIT" class="st0">
	<rect y="0" class="st1" width="425.2" height="14.7"/>
</g>
<g id="COURBE">
	<g id="axis">
		<line class="st2" x1="21.6" y1="206" x2="253.7" y2="206"/>
		<line class="st3" x1="21.6" y1="152.5" x2="253.7" y2="152.5"/>
		<line class="st2" x1="21.6" y1="98.9" x2="253.7" y2="98.9"/>
		<line class="st2" x1="21.6" y1="45.3" x2="253.7" y2="45.3"/>
		<line class="st2" x1="21.6" y1="206" x2="21.6" y2="45.3"/>
		<line class="st2" x1="75" y1="206" x2="75" y2="45.3"/>
		<line class="st2" x1="128.3" y1="206" x2="128.3" y2="45.3"/>
		<line class="st2" x1="181.6" y1="206" x2="181.6" y2="45.3"/>
		<line class="st2" x1="235" y1="206" x2="235" y2="45.3"/>
	</g>
	<g id="ticks">
		<line class="st4" x1="19.1" y1="206" x2="21.6" y2="206"/>
		<line class="st4" x1="19.1" y1="152.5" x2="21.6" y2="152.5"/>
		<line class="st4" x1="19.1" y1="98.9" x2="21.6" y2="98.9"/>
		<line class="st4" x1="19.1" y1="45.3" x2="21.6" y2="45.3"/>
		<line class="st4" x1="21.6" y1="208.5" x2="21.6" y2="206"/>
		<line class="st4" x1="75" y1="208.5" x2="75" y2="206"/>
		<line class="st4" x1="128.3" y1="208.5" x2="128.3" y2="206"/>
		<line class="st4" x1="181.6" y1="208.5" x2="181.6" y2="206"/>
		<line class="st4" x1="235" y1="208.5" x2="235" y2="206"/>
	</g>
	<g id="axis_x5F_value">
		<g>
			<text transform="matrix(1 0 0 1 1.2029 208.9814)"><tspan x="0" y="0" class="st5 st6 st7">−</tspan><tspan x="4.2" y="0" class="st5 st8 st7"> 1 %</tspan></text>
		</g>
		<g>
			<text transform="matrix(1 0 0 1 3.7869 155.4053)" class="st5 st8 st7">0 %</text>
		</g>
		<g>
			<text transform="matrix(1 0 0 1 1.574 101.8291)" class="st5 st8 st7">+ 1 %</text>
		</g>
		<g>
			<text transform="matrix(1 0 0 1 0.6512 50.084)" class="st5 st8 st7">+ 2 %</text>
		</g>
	</g>
	<g id="year">
		<g>
			<text transform="matrix(1 0 0 1 21.0985 217.0049)" class="st5 st8 st7">1970</text>
		</g>
		<g>
			<text transform="matrix(1 0 0 1 69.9237 217.0049)" class="st5 st8 st7">1980</text>
		</g>
		<g>
			<text transform="matrix(1 0 0 1 123.2704 217.0049)" class="st5 st8 st7">1990</text>
		</g>
		<g>
			<text transform="matrix(1 0 0 1 176.6219 217.0049)" class="st5 st8 st7">2000</text>
		</g>
		<g>
			<text transform="matrix(1 0 0 1 229.9681 217.0049)" class="st5 st8 st7">2010</text>
		</g>
	</g>
	<g id="line">
		<polyline class="st9" points="29.6,136.2 32.3,140.3 35,144.2 37.7,147.8 40.4,151.2 43.1,154.3 45.8,157.2 48.5,159.9 
			51.2,162.4 53.9,164.6 56.6,166.6 59.3,168.3 62,169.9 64.7,171.2 67.4,172.2 70.1,172.9 72.8,173.1 75.5,172.9 78.2,172.3 
			80.9,171.5 83.6,170.5 86.3,169.3 89,168 91.7,166.7 94.4,165.4 97.1,164.1 99.8,163 102.5,162.1 105.2,161.5 107.9,161.1 
			110.6,161 113.3,160.9 116,161 118.7,161.1 121.4,161.4 124.1,161.7 126.8,162 129.5,162.4 132.2,162.8 135,163.1 137.6,163.5 
			140.4,163.9 143.1,164.2 145.8,164.4 148.5,164.5 151.2,164.6 153.9,164.5 156.6,164.4 159.3,164.2 162,164 164.7,163.6 
			167.4,163.3 170.1,162.9 172.8,162.5 175.5,162 178.2,161.6 180.9,161.1 183.6,160.7 186.3,160.3 189,159.9 191.7,159.5 
			194.4,159.2 197.1,159 199.8,158.8 202.5,158.7 205.2,158.6 207.9,158.6 210.6,158.6 213.3,158.6 216,158.7 218.7,158.8 
			221.4,158.9 224.1,159 226.8,159.2 229.5,159.4 232.2,159.6 234.9,159.9 237.6,160.1 240.3,160.5 243,160.8 		"/>
		<polyline class="st10" points="29.6,111.2 32.3,105.2 35,99.7 37.7,94.5 40.4,89.6 43.1,85.2 45.8,81.2 48.5,77.5 51.2,74.2 
			53.9,71.3 56.6,68.8 59.3,66.7 62,64.9 64.7,63.5 67.4,62.5 70.1,62.2 72.8,62.5 75.5,63.4 78.2,64.9 80.9,66.8 83.6,69 
			86.3,71.5 89,74.3 91.7,77.1 94.4,80 97.1,82.9 99.8,85.7 102.5,88.2 105.2,90.5 107.9,92.4 110.6,94.4 113.3,96.4 116,98.5 
			118.7,100.6 121.4,102.8 124.1,104.9 126.8,107 129.5,109.1 132.2,111.1 135,112.9 137.6,114.7 140.4,116.3 143.1,117.7 
			145.8,119 148.5,120 151.2,120.8 153.9,121.3 156.6,121.4 159.3,121.2 162,120.6 164.7,119.9 167.4,118.9 170.1,117.7 
			172.8,116.4 175.5,115.1 178.2,113.6 180.9,112.2 183.6,110.8 186.3,109.5 189,108.3 191.7,107.3 194.4,106.5 197.1,105.9 
			199.8,105.6 202.5,105.7 205.2,106 207.9,106.5 210.6,107.1 213.3,107.8 216,108.6 218.7,109.6 221.4,110.7 224.1,111.8 
			226.8,113.2 229.5,114.6 232.2,116.1 234.9,117.8 237.6,119.6 240.3,121.5 243,123.5 		"/>
		<polyline class="st11" points="29.6,167 32.3,162.5 35,158.3 37.7,154.3 40.4,150.5 43.1,147 45.8,143.7 48.5,140.6 51.2,137.7 
			53.9,135.1 56.6,132.7 59.3,130.5 62,128.6 64.7,126.9 67.4,125.4 70.1,124.3 72.8,123.6 75.5,123.2 78.2,123.2 80.9,123.4 
			83.6,123.9 86.3,124.5 89,125.3 91.7,126.1 94.4,126.9 97.1,127.7 99.8,128.5 102.5,129.1 105.2,129.6 107.9,129.9 110.6,130.1 
			113.3,130.5 116,130.8 118.7,131.3 121.4,131.7 124.1,132.1 126.8,132.4 129.5,132.8 132.2,133.1 135,133.3 137.6,133.5 
			140.4,133.6 143.1,133.5 145.8,133.4 148.5,133.1 151.2,132.6 153.9,132 156.6,131 159.3,129.8 162,128.3 164.7,126.6 
			167.4,124.7 170.1,122.8 172.8,120.7 175.5,118.6 178.2,116.6 180.9,114.5 183.6,112.6 186.3,110.8 189,109.2 191.7,107.8 
			194.4,106.7 197.1,105.9 199.8,105.4 202.5,105.3 205.2,105.6 207.9,106 210.6,106.6 213.3,107.4 216,108.4 218.7,109.5 
			221.4,110.9 224.1,112.4 226.8,114 229.5,115.9 232.2,117.9 234.9,120.1 237.6,122.5 240.3,125 243,127.8 		"/>
		<polyline class="st12" points="29.6,139.1 32.3,142 35,144.8 37.7,147.3 40.4,149.8 43.1,152 45.8,154.1 48.5,156.1 51.2,157.9 
			53.9,159.5 56.6,161 59.3,162.3 62,163.5 64.7,164.5 67.4,165.4 70.1,166 72.8,166.3 75.5,166.4 78.2,166.3 80.9,166 83.6,165.6 
			86.3,165 89,164.4 91.7,163.7 94.4,163 97.1,162.3 99.8,161.6 102.5,161 105.2,160.5 107.9,160.1 110.6,159.8 113.3,159.4 
			116,159.1 118.7,158.8 121.4,158.5 124.1,158.2 126.8,157.9 129.5,157.6 132.2,157.3 135,156.9 137.6,156.5 140.4,156.1 
			143.1,155.7 145.8,155.2 148.5,154.7 151.2,154.1 153.9,153.5 156.6,152.7 159.3,151.8 162,150.8 164.7,149.7 167.4,148.5 
			170.1,147.3 172.8,146.1 175.5,144.8 178.2,143.6 180.9,142.5 183.6,141.4 186.3,140.4 189,139.5 191.7,138.7 194.4,138.2 
			197.1,137.8 199.8,137.6 202.5,137.6 205.2,137.9 207.9,138.2 210.6,138.7 213.3,139.3 216,140 218.7,140.8 221.4,141.7 
			224.1,142.8 226.8,143.9 229.5,145.2 232.2,146.6 234.9,148.1 237.6,149.7 240.3,151.4 243,153.3 		"/>
		<polyline class="st13" points="29.6,169.7 32.3,159.2 35,149.3 37.7,140.1 40.4,131.4 43.1,123.3 45.8,115.8 48.5,108.9 
			51.2,102.6 53.9,96.9 56.6,91.7 59.3,87.2 62,83.2 64.7,79.9 67.4,77.1 70.1,75.3 72.8,74.5 75.5,74.7 78.2,75.6 80.9,77.2 
			83.6,79.4 86.3,82 89,85 91.7,88.1 94.4,91.4 97.1,94.6 99.8,97.7 102.5,100.6 105.2,103 107.9,105 110.6,107.1 113.3,109.3 
			116,111.7 118.7,114.2 121.4,116.7 124.1,119.2 126.8,121.7 129.5,124.2 132.2,126.6 135,128.9 137.6,131 140.4,132.9 
			143.1,134.5 145.8,135.9 148.5,137 151.2,137.8 153.9,138.1 156.6,137.9 159.3,137.3 162,136.2 164.7,134.8 167.4,133.1 
			170.1,131.2 172.8,129.1 175.5,126.9 178.2,124.6 180.9,122.4 183.6,120.2 186.3,118.1 189,116.3 191.7,114.6 194.4,113.3 
			197.1,112.4 199.8,111.9 202.5,111.9 205.2,112.3 207.9,112.9 210.6,113.7 213.3,114.7 216,115.8 218.7,117.2 221.4,118.7 
			224.1,120.4 226.8,122.3 229.5,124.4 232.2,126.7 234.9,129.2 237.6,131.8 240.3,134.7 243,137.7 		"/>
		<polyline class="st14" points="29.6,143 32.3,144 35,145 37.7,146 40.4,146.9 43.1,147.8 45.8,148.8 48.5,149.7 51.2,150.5 
			53.9,151.4 56.6,152.2 59.3,153 62,153.8 64.7,154.5 67.4,155.3 70.1,156 72.8,156.8 75.5,157.6 78.2,158.4 80.9,159.2 83.6,160 
			86.3,160.7 89,161.4 91.7,162 94.4,162.5 97.1,162.9 99.8,163.3 102.5,163.5 105.2,163.6 107.9,163.6 110.6,163.4 113.3,163 
			116,162.6 118.7,162 121.4,161.4 124.1,160.6 126.8,159.8 129.5,158.9 132.2,157.9 135,156.9 137.6,155.9 140.4,154.9 
			143.1,153.8 145.8,152.8 148.5,151.8 151.2,150.8 153.9,149.9 156.6,148.8 159.3,147.7 162,146.4 164.7,145.1 167.4,143.7 
			170.1,142.3 172.8,140.9 175.5,139.5 178.2,138.1 180.9,136.7 183.6,135.5 186.3,134.3 189,133.2 191.7,132.2 194.4,131.4 
			197.1,130.7 199.8,130.2 202.5,129.9 205.2,129.8 207.9,129.8 210.6,129.9 213.3,130.1 216,130.4 218.7,130.8 221.4,131.3 
			224.1,131.9 226.8,132.6 229.5,133.4 232.2,134.3 234.9,135.3 237.6,136.4 240.3,137.6 243,138.9 		"/>
		<polyline class="st15" points="29.6,182 32.3,173.7 35,165.8 37.7,158.4 40.4,151.4 43.1,144.9 45.8,138.7 48.5,133.1 51.2,127.9 
			53.9,123.1 56.6,118.8 59.3,114.9 62,111.5 64.7,108.5 67.4,105.9 70.1,104.1 72.8,103 75.5,102.6 78.2,102.8 80.9,103.5 
			83.6,104.6 86.3,106.1 89,107.8 91.7,109.7 94.4,111.6 97.1,113.6 99.8,115.5 102.5,117.2 105.2,118.6 107.9,119.7 110.6,120.9 
			113.3,122.2 116,123.6 118.7,125.1 121.4,126.6 124.1,128.1 126.8,129.7 129.5,131.2 132.2,132.7 135,134.1 137.6,135.4 
			140.4,136.6 143.1,137.6 145.8,138.5 148.5,139.1 151.2,139.5 153.9,139.6 156.6,139.4 159.3,138.8 162,137.9 164.7,136.8 
			167.4,135.5 170.1,134 172.8,132.5 175.5,130.8 178.2,129.2 180.9,127.5 183.6,126 186.3,124.5 189,123.2 191.7,122.1 
			194.4,121.3 197.1,120.8 199.8,120.6 202.5,120.7 205.2,121.3 207.9,121.9 210.6,122.8 213.3,123.8 216,124.9 218.7,126.2 
			221.4,127.7 224.1,129.3 226.8,131.1 229.5,133 232.2,135.1 234.9,137.4 237.6,139.8 240.3,142.4 243,145.1 		"/>
		<polyline class="st16" points="29.6,193.2 32.3,188.2 35,183.5 37.7,178.9 40.4,174.6 43.1,170.6 45.8,166.7 48.5,163.1 
			51.2,159.7 53.9,156.5 56.6,153.6 59.3,150.8 62,148.4 64.7,146.1 67.4,144.1 70.1,142.4 72.8,141.1 75.5,140.2 78.2,139.6 
			80.9,139.2 83.6,139.1 86.3,139.1 89,139.2 91.7,139.5 94.4,139.7 97.1,140 99.8,140.2 102.5,140.3 105.2,140.3 107.9,140.1 
			110.6,139.9 113.3,139.8 116,139.8 118.7,139.8 121.4,139.8 124.1,139.8 126.8,139.9 129.5,139.9 132.2,139.8 135,139.8 
			137.6,139.6 140.4,139.4 143.1,139 145.8,138.6 148.5,138 151.2,137.2 153.9,136.3 156.6,135 159.3,133.5 162,131.7 164.7,129.7 
			167.4,127.6 170.1,125.3 172.8,123 175.5,120.7 178.2,118.3 180.9,116.1 183.6,113.9 186.3,111.9 189,110.1 191.7,108.6 
			194.4,107.3 197.1,106.4 199.8,105.8 202.5,105.7 205.2,106 207.9,106.4 210.6,107.1 213.3,107.9 216,109 218.7,110.2 
			221.4,111.6 224.1,113.3 226.8,115.1 229.5,117.1 232.2,119.4 234.9,121.8 237.6,124.4 240.3,127.2 243,130.2 		"/>
		<polyline class="st17" points="29.6,190.7 32.3,187.2 35,183.8 37.7,180.6 40.4,177.5 43.1,174.7 45.8,171.9 48.5,169.3 
			51.2,166.9 53.9,164.7 56.6,162.6 59.3,160.6 62,158.8 64.7,157.2 67.4,155.7 70.1,154.5 72.8,153.6 75.5,153 78.2,152.6 
			80.9,152.3 83.6,152.3 86.3,152.3 89,152.4 91.7,152.5 94.4,152.6 97.1,152.7 99.8,152.8 102.5,152.7 105.2,152.4 107.9,152 
			110.6,151.5 113.3,151 116,150.5 118.7,150 121.4,149.4 124.1,148.9 126.8,148.2 129.5,147.6 132.2,146.9 135,146.2 137.6,145.4 
			140.4,144.6 143.1,143.8 145.8,142.9 148.5,141.9 151.2,140.9 153.9,139.8 156.6,138.5 159.3,137 162,135.3 164.7,133.4 
			167.4,131.5 170.1,129.5 172.8,127.5 175.5,125.5 178.2,123.5 180.9,121.6 183.6,119.7 186.3,118.1 189,116.5 191.7,115.2 
			194.4,114.1 197.1,113.3 199.8,112.7 202.5,112.5 205.2,112.6 207.9,112.9 210.6,113.3 213.3,113.9 216,114.6 218.7,115.6 
			221.4,116.6 224.1,117.9 226.8,119.3 229.5,120.8 232.2,122.6 234.9,124.5 237.6,126.5 240.3,128.7 243,131.1 		"/>
		<polyline class="st18" points="29.6,190.7 32.3,187.2 35,183.8 37.7,180.6 40.4,177.5 43.1,174.7 45.8,171.9 48.5,169.3 
			51.2,166.9 53.9,164.7 56.6,162.6 59.3,160.6 62,158.8 64.7,157.2 67.4,155.7 70.1,154.5 72.8,153.6 75.5,153 78.2,152.6 
			80.9,152.3 83.6,152.3 86.3,152.3 89,152.4 91.7,152.5 94.4,152.6 97.1,152.7 99.8,152.8 102.5,152.7 105.2,152.4 107.9,152 
			110.6,151.5 113.3,151 116,150.5 118.7,150 121.4,149.4 124.1,148.9 126.8,148.2 129.5,147.6 132.2,146.9 135,146.2 137.6,145.4 
			140.4,144.6 143.1,143.8 145.8,142.9 148.5,141.9 151.2,140.9 153.9,139.8 156.6,138.5 159.3,137 162,135.3 164.7,133.4 
			167.4,131.5 170.1,129.5 172.8,127.5 175.5,125.5 178.2,123.5 180.9,121.6 183.6,119.7 186.3,118.1 189,116.5 191.7,115.2 
			194.4,114.1 197.1,113.3 199.8,112.7 202.5,112.5 205.2,112.6 207.9,112.9 210.6,113.3 213.3,113.9 216,114.6 218.7,115.6 
			221.4,116.6 224.1,117.9 226.8,119.3 229.5,120.8 232.2,122.6 234.9,124.5 237.6,126.5 240.3,128.7 243,131.1 		"/>
	</g>
</g>
<g id="HABILLAGE">
	<rect x="2.1" y="17.2" class="st19" width="416.8" height="19.1"/>
	<text transform="matrix(1 0 0 1 2.1386 22.952)"><tspan x="0" y="0" class="st20 st21 st22">Taux d’évolution de la population due au solde migratoire apparent entre 1968 et 2014 (moyenne annuelle)</tspan><tspan x="0" y="8" class="st20 st23 st7">En %, par catégorie du zonage en aires urbaines</tspan></text>
	<g id="Titre">
		<rect y="0.3" class="st19" width="416" height="20.3"/>
		<text transform="matrix(1 0 0 1 1.807846e-04 6.6469)" class="st20 st24 st25">La croissance migratoire des espaces ruraux tend à rattraper celle, ancienne, des espaces périurbains</text>
	</g>
	<g id="Source">
		<rect x="135.5" y="297.5" class="st19" width="289.7" height="5.4"/>
		<text transform="matrix(1 0 0 1 157.5898 301.916)"><tspan x="0" y="0" class="st20 st24 st26">Source : </tspan><tspan x="25.1" y="0" class="st20 st8 st26">Insee, RP 1968-2014 • </tspan><tspan x="84.6" y="0" class="st20 st24 st26">Traitement : </tspan><tspan x="119.9" y="0" class="st20 st8 st26">Observatoire des territoires • </tspan><tspan x="201.2" y="0" class="st20 st24 st26">Réalisation : </tspan><tspan x="237.5" y="0" class="st20 st8 st26">CGET 2018 </tspan></text>
	</g>
	<g id="legende_1_">
		<text transform="matrix(1 0 0 1 285.0679 61.2952)" class="st20 st23 st7">Grands pôles</text>
		<text transform="matrix(1 0 0 1 285.0679 72.6338)" class="st20 st23 st7">Couronnes de grands pôles</text>
		<text transform="matrix(1 0 0 1 285.0679 83.9724)" class="st20 st23 st7">Communes multipolarisées des grandes aires urbaines</text>
		<text transform="matrix(1 0 0 1 285.0688 116.0222)" class="st20 st23 st7">Pôles moyens</text>
		<text transform="matrix(1 0 0 1 285.0688 127.3608)" class="st20 st23 st7">Couronnes des pôles moyens</text>
		<text transform="matrix(1 0 0 1 285.0684 159.3765)" class="st20 st23 st7">Petits pôles</text>
		<text transform="matrix(1 0 0 1 285.0688 170.749)" class="st20 st23 st7">Couronnes des petits pôles</text>
		<text transform="matrix(1 0 0 1 285.0757 202.7986)" class="st20 st23 st7">Autres communes multipolarisées</text>
		<text transform="matrix(1 0 0 1 285.0684 214.137)" class="st20 st23 st7">Communes isolées, hors influence des pôles</text>
		<g id="trait">
			<line class="st27" x1="261.3" y1="59.1" x2="281.2" y2="59.1"/>
			<line class="st28" x1="261.3" y1="70.4" x2="281.2" y2="70.4"/>
			<line class="st29" x1="261.3" y1="81.8" x2="281.2" y2="81.8"/>
			<line class="st30" x1="261.3" y1="113.8" x2="281.2" y2="113.8"/>
			<line class="st31" x1="261.3" y1="125.2" x2="281.2" y2="125.2"/>
			<line class="st32" x1="261.3" y1="157.2" x2="281.2" y2="157.2"/>
			<line class="st33" x1="261.3" y1="168.6" x2="281.2" y2="168.6"/>
			<line class="st34" x1="261.3" y1="200.6" x2="281.2" y2="200.6"/>
			<line class="st35" x1="261.3" y1="211.9" x2="281.2" y2="211.9"/>
			<line class="st36" x1="261.3" y1="211.9" x2="281.2" y2="211.9"/>
		</g>
		<g id="_x3C_Calque_x3E_">
			<text transform="matrix(1 0 0 1 261.3324 46.2527)" class="st20 st21 st22">Grandes aires urbaines</text>
			<text transform="matrix(1 0 0 1 261.4037 100.9801)" class="st20 st21 st22">Aires urbaines moyennes</text>
			<text transform="matrix(1 0 0 1 261.3318 144.3687)" class="st20 st21 st22">Petites aires urbaines</text>
			<text transform="matrix(1 0 0 1 261.3322 187.757)" class="st20 st21 st22">Hors aires urbaines</text>
		</g>
	</g>
	<g id="Focus">
		<rect x="2.2" y="253.8" class="st19" width="418.4" height="37.2"/>
		<text transform="matrix(1.0366 0 0 1 2.1567 258.7639)"><tspan x="0" y="0" class="st37 st38 st7">Les valeurs indiquées sur le graphique correspondent au taux d’évolution moyen de la population au cours de chaque période intercensitaire (1968-1975, 1975-1982, </tspan><tspan x="0" y="7" class="st37 st38 st7">1982-1990, 1990-1999, 1999-2009, 2009-2014) et sont positionnées sur l’année médiane des périodes (1972 pour la période 1968-1975 par exemple). Il ne s’agit </tspan><tspan x="0" y="14" class="st37 st38 st7">donc pas d’une série de valeurs continues.</tspan><tspan x="0" y="21" class="st37 st38 st7">Par ailleurs, afin de comparer les évolutions migratoires de chaque catégorie de communes dans le temps sans qu’elles ne soient affectées par des changements de </tspan><tspan x="0" y="28" class="st37 st38 st7">périmètre, le zonage en aires urbaines 2010 a été appliqué à toute la période.  </tspan></text>
		<g>
			<g>
				<path class="st39" d="M15.2,241.5c-3.5,0-6.4-2.8-6.4-6.2c0-3.4,2.9-6.2,6.4-6.2c3.5,0,6.4,2.8,6.4,6.2
					C21.6,238.7,18.7,241.5,15.2,241.5z"/>
				<g>
					<g>
						<path class="st40" d="M15.2,242.8c4.3,0,7.8-3.4,7.8-7.5c0-4.1-3.5-7.5-7.8-7.5c-4.3,0-7.8,3.4-7.8,7.5
							C7.4,239.5,10.9,242.8,15.2,242.8z M9.4,235.3c0-3.1,2.6-5.6,5.8-5.6c3.2,0,5.8,2.5,5.8,5.6c0,3.1-2.6,5.6-5.8,5.6
							C12,240.9,9.4,238.4,9.4,235.3z"/>
						<path class="st40" d="M5.6,247.3l4.7-4.6c-1.1-0.7-2-1.6-2.7-2.6l-4.7,4.6c-0.8,0.7-0.8,1.9,0,2.6C3.6,248,4.8,248,5.6,247.3z
							"/>
					</g>
					<path class="st40" d="M14.8,230.9c-2.3,0-4.1,1.8-4.1,4c0,0.2,0.1,0.3,0.3,0.3c0.2,0,0.3-0.1,0.3-0.3c0-1.9,1.6-3.4,3.5-3.4
						c0.2,0,0.3-0.1,0.3-0.3C15.1,231,14.9,230.9,14.8,230.9z"/>
				</g>
			</g>
			<text transform="matrix(1.0366 0 0 1 25.5522 245.5402)" class="st41 st42 st7">POUR MIEUX COMPRENDRE</text>
		</g>
	</g>
</g>
</svg>
