<?xml version="1.0" encoding="UTF-8"?>
<?xml-stylesheet type="text/css" href="../css/svg.css" ?>

<svg id="svg-05-section3"
	 viewBox="0 0 425.2 297.6"
	 width="425.2" height="297.6"
     xmlns="http://www.w3.org/2000/svg">		

<style type="text/css">
	.st0{display:none;fill:#E2E2D5;}
	.st1{fill:none;stroke:#010202;stroke-width:1.07;stroke-linejoin:round;stroke-miterlimit:10;}
	.st2{fill:none;stroke:#333333;stroke-width:1.07;stroke-linejoin:round;stroke-miterlimit:10;}
	.st3{fill:#333333;}
	.st4{font-family:'Chalet-LondonNineteenSixty';}
	.st5{font-size:7px;}
	.st6{fill:none;stroke:#D9D9D9;stroke-width:0.3;stroke-linejoin:round;stroke-miterlimit:10;}
	.st7{fill:none;stroke:#333333;stroke-width:0.5;stroke-linejoin:round;stroke-miterlimit:10;}
	.st8{font-family:'HelveticaNeueLTStd-LtCn';}
	.st9{fill:none;stroke:#CB171B;stroke-width:2.5;stroke-linecap:round;stroke-linejoin:round;stroke-miterlimit:10;}
	.st10{fill:none;stroke:#795AA2;stroke-width:4;stroke-linecap:round;stroke-linejoin:round;stroke-miterlimit:10;}
	.st11{fill:none;stroke:#F5992B;stroke-width:2.5;stroke-linecap:round;stroke-linejoin:round;stroke-miterlimit:10;}
	.st12{fill:none;stroke:#A31C76;stroke-width:2.5;stroke-linecap:round;stroke-linejoin:round;stroke-miterlimit:10;}
	.st13{fill:none;stroke:#0A9BA2;stroke-width:2.5;stroke-linecap:round;stroke-linejoin:round;stroke-miterlimit:10;}
	.st14{fill:none;stroke:#8DCFD5;stroke-width:2.5;stroke-linecap:round;stroke-linejoin:round;stroke-miterlimit:10;}
	.st15{fill:none;stroke:#D3D5EA;stroke-width:2.5;stroke-linecap:round;stroke-linejoin:round;stroke-miterlimit:10;}
	.st16{fill:none;stroke:#F2F4EE;stroke-width:2.5;stroke-linecap:round;stroke-linejoin:round;stroke-miterlimit:10;}
	.st17{fill:#7959A2;stroke:#B5C0C3;stroke-width:0.5;stroke-miterlimit:10;}
	.st18{fill:#DBECDB;stroke:#B5C0C3;stroke-width:0.5;stroke-miterlimit:10;}
	.st19{fill:#B79BC9;stroke:#B5C0C3;stroke-width:0.5;stroke-miterlimit:10;}
	.st20{fill:#5D368C;stroke:#B5C0C3;stroke-width:0.5;stroke-miterlimit:10;}
	.st21{fill:#FFFFFF;}
	.st22{fill:none;stroke:#FBD538;stroke-width:2.5;stroke-linecap:round;stroke-linejoin:round;stroke-miterlimit:10;}
	.st23{fill:none;stroke:#C775AD;stroke-width:2.5;stroke-linecap:round;stroke-linejoin:round;stroke-miterlimit:10;}
	.st24{fill:none;}
	.st25{font-family:'Chalet-NewYorkNineteenSixty';}
	.st26{font-size:8.5px;}
	.st27{font-size:6px;}
	.st28{fill:none;stroke:#B5C0C3;stroke-width:0.5;stroke-linecap:round;stroke-linejoin:round;stroke-miterlimit:10;}
	.st29{font-family:'HelveticaNeueLTStd-MdCn';}
	.st30{font-size:8px;}
	.st31{fill:#5D368C;}
	.st32{fill:#7959A2;}
	.st33{fill:#B79BC9;}
	.st34{fill:#DBECDB;}
	.st35{fill:none;stroke:#656564;stroke-width:0.2;stroke-linecap:round;stroke-linejoin:round;stroke-miterlimit:10;}
</style>
<g id="GABARIT">
	<rect y="0" class="st0" width="425.2" height="20.4"/>
</g>
<g id="COURBE">
	<g id="axis">
	</g>
	<g id="ticks">
	</g>
	<g id="axis_x5F_value">
	</g>
	<g id="year">
	</g>
	<g id="line">
	</g>
</g>
<g id="GRAPHIQUE">
	<path class="st1" d="M422.2,140.4"/>
	<path class="st1" d="M167.6,140.4"/>
	<path class="st1" d="M256.3,44.4"/>
	<path class="st1" d="M256.3,187.4"/>
	<line class="st2" x1="166" y1="180.9" x2="167.6" y2="180.9"/>
	<line class="st2" x1="166" y1="137.6" x2="167.6" y2="137.6"/>
	<line class="st2" x1="166" y1="94.2" x2="167.6" y2="94.2"/>
	<line class="st2" x1="166" y1="50.9" x2="167.6" y2="50.9"/>
	<line class="st2" x1="179.1" y1="188.9" x2="179.1" y2="187.4"/>
	<line class="st2" x1="256.3" y1="188.9" x2="256.3" y2="187.4"/>
	<line class="st2" x1="333.4" y1="188.9" x2="333.4" y2="187.4"/>
	<line class="st2" x1="410.6" y1="188.9" x2="410.6" y2="187.4"/>
	<g>
		<text transform="matrix(0.9786 0 0 1 209.4624 210.1201)" class="st3 st4 st5">Taux d&apos;évolution de la population due au solde naturel</text>
	</g>
	<g>
		<text transform="matrix(0 -0.9786 1 0 124.8922 168.2085)"><tspan x="0" y="0" class="st3 st4 st5">Taux d&apos;évolution de la population</tspan><tspan x="13.8" y="7" class="st3 st4 st5"> due au solde migratoire</tspan></text>
	</g>
	<g id="Calque_1">
	</g>
	<g id="axis_1_">
		<line class="st6" x1="167.6" y1="180.9" x2="422.2" y2="180.9"/>
		<line class="st7" x1="167.6" y1="137.6" x2="422.2" y2="137.6"/>
		<line class="st6" x1="167.6" y1="94.2" x2="422.2" y2="94.2"/>
		<line class="st6" x1="167.6" y1="50.9" x2="422.2" y2="50.9"/>
		<line class="st6" x1="179.1" y1="187.4" x2="179.1" y2="44.4"/>
		<line class="st7" x1="256.3" y1="187.4" x2="256.3" y2="44.4"/>
		<line class="st6" x1="333.4" y1="187.4" x2="333.4" y2="44.4"/>
		<line class="st6" x1="410.6" y1="187.4" x2="410.6" y2="44.4"/>
	</g>
	<g id="axis_x5F_label">
		<g>
			<text transform="matrix(1 0 0 1 139.6336 183.0981)" class="st8 st5">−0,5 %</text>
		</g>
		<g>
			<text transform="matrix(1 0 0 1 151.3245 139.7553)" class="st8 st5">0 %</text>
		</g>
		<g>
			<text transform="matrix(1 0 0 1 139.6336 96.4177)" class="st8 st5">+0,5 %</text>
		</g>
		<g>
			<text transform="matrix(1 0 0 1 146.3123 53.0746)" class="st8 st5">+1 %</text>
		</g>
		<g>
			<text transform="matrix(1 0 0 1 169.4604 196.9314)" class="st8 st5">−0,5 %</text>
		</g>
		<g>
			<text transform="matrix(1 0 0 1 251.2424 196.9314)" class="st8 st5">0 %</text>
		</g>
		<g>
			<text transform="matrix(1 0 0 1 323.7788 196.9321)" class="st8 st5">+0,5 %</text>
		</g>
		<g>
			<text transform="matrix(1 0 0 1 403.4554 196.9314)" class="st8 st5">+1 %</text>
		</g>
	</g>
	<g id="cercle_x5F_vide">
		<path class="st9" d="M344.9,114.1c20.3,0,36.9,16.6,36.9,36.9s-16.6,36.9-36.9,36.9c-20.3,0-36.9-16.6-36.9-36.9"/>
		<path class="st10" d="M344.9,136.6"/>
		<path class="st11" d="M324.6,69.3c11.8,0,21.5,9.7,21.5,21.5s-9.7,21.5-21.5,21.5s-21.5-9.7-21.5-21.5"/>
		<path class="st12" d="M262.9,129.4c5.2,0,9.4,4.3,9.4,9.4c0,5.2-4.2,9.4-9.4,9.4c-5.2,0-9.4-4.3-9.4-9.4"/>
		<path class="st13" d="M214,107.9c4.2,0,7.6,3.4,7.6,7.6c0,4.2-3.4,7.6-7.6,7.6c-4.2,0-7.6-3.4-7.6-7.6"/>
		<path class="st14" d="M256.3,121.8c2.1,0,3.8,1.7,3.8,3.8c0,2.1-1.7,3.8-3.8,3.8c-2.1,0-3.8-1.7-3.8-3.8"/>
		<path class="st15" d="M267.8,89.5c6.6,0,12,5.4,12,12c0,6.6-5.4,12-12,12c-6.6,0-12-5.4-12-12"/>
		<path class="st16" d="M188.2,91.6c6.3,0,11.4,5.1,11.4,11.4c0,6.3-5.1,11.4-11.4,11.4c-6.3,0-11.4-5.1-11.4-11.4"/>
	</g>
	<g id="cercle_x5F_plein">
		<path class="st17" d="M344.9,186.4c-19.5,0-35.4-15.9-35.4-35.4c0-19.5,15.9-35.4,35.4-35.4c19.5,0,35.4,15.9,35.4,35.4
			C380.3,170.5,364.4,186.4,344.9,186.4"/>
		<path class="st18" d="M178.3,103c0-5.4,4.5-9.9,9.9-9.9c5.4,0,9.9,4.5,9.9,9.9c0,5.4-4.5,9.9-9.9,9.9
			C182.8,112.9,178.3,108.5,178.3,103"/>
		<path class="st17" d="M257.3,101.6c0-5.8,4.7-10.5,10.5-10.5c5.8,0,10.5,4.7,10.5,10.5c0,5.8-4.7,10.5-10.5,10.5
			C262.1,112.1,257.3,107.4,257.3,101.6"/>
		<path class="st18" d="M207.9,115.6c0-3.4,2.7-6.1,6.1-6.1c3.4,0,6.1,2.7,6.1,6.1c0,3.4-2.7,6.1-6.1,6.1
			C210.7,121.7,207.9,118.9,207.9,115.6"/>
		<path class="st19" d="M255,138.8c0-4.3,3.6-7.9,7.9-7.9c4.4,0,7.9,3.6,7.9,7.9c0,4.4-3.6,7.9-7.9,7.9
			C258.6,146.8,255,143.2,255,138.8"/>
		<path class="st20" d="M304.5,90.7c0-11,9-20.1,20.1-20.1s20.1,9,20.1,20.1s-9,20.1-20.1,20.1S304.5,101.8,304.5,90.7"/>
		<circle id="_x3C_Tracé_x3E__4_" class="st17" cx="288.6" cy="113.6" r="3.4"/>
		<circle id="_x3C_Tracé_x3E__1_" class="st19" cx="256.3" cy="125.5" r="2.3"/>
		<path class="st20" d="M286.4,97.6c0-5.8,4.7-10.5,10.5-10.5c5.8,0,10.5,4.7,10.5,10.5c0,5.8-4.7,10.5-10.5,10.5
			C291.2,108.1,286.4,103.4,286.4,97.6"/>
	</g>
	<g id="centroide">
		<circle class="st21" cx="344.9" cy="151" r="0.6"/>
		<circle class="st21" cx="324.6" cy="90.7" r="0.6"/>
		<circle class="st21" cx="296.9" cy="97.6" r="0.6"/>
		<circle class="st21" cx="288.6" cy="113.6" r="0.6"/>
		<circle class="st21" cx="267.8" cy="101.6" r="0.6"/>
		<circle class="st21" cx="256.3" cy="125.5" r="0.6"/>
		<circle class="st21" cx="214" cy="115.6" r="0.6"/>
		<circle class="st21" cx="188.2" cy="103" r="0.6"/>
		<circle class="st21" cx="262.9" cy="138.8" r="0.6"/>
	</g>
	<path class="st22" d="M296.9,85.6c6.6,0,12,5.4,12,12c0,6.6-5.4,12-12,12c-6.6,0-12-5.4-12-12"/>
	<path class="st23" d="M288.6,108.7c2.7,0,4.9,2.2,4.9,4.9c0,2.7-2.2,4.9-4.9,4.9s-4.9-2.2-4.9-4.9"/>
</g>
<g id="HABILLAGE">
	<g id="Titre">
		<rect y="0.3" class="st24" width="401.3" height="20.3"/>
		<text transform="matrix(1 0 0 1 1.807846e-04 6.6469)"><tspan x="0" y="0" class="st3 st25 st26">Dans les petits pôles et les communes rurales, l’attractivité migratoire n’empêche pas une légère </tspan><tspan x="0" y="10" class="st3 st25 st26">baisse de population liée à un fort déficit naturel</tspan></text>
	</g>
	<g id="Source">
		<rect x="135.5" y="292.3" class="st24" width="289.7" height="5.4"/>
		<text transform="matrix(1 0 0 1 171.9292 296.7332)"><tspan x="0" y="0" class="st3 st25 st27">Source : </tspan><tspan x="25.1" y="0" class="st3 st4 st27">Insee, RP 2014 • </tspan><tspan x="70.3" y="0" class="st3 st25 st27">Traitement : </tspan><tspan x="105.6" y="0" class="st3 st4 st27">Observatoire des territoires • </tspan><tspan x="186.8" y="0" class="st3 st25 st27">Réalisation : </tspan><tspan x="223.1" y="0" class="st3 st4 st27">CGET 2018 </tspan></text>
	</g>
	<g id="legende_1_">
		<g id="trait">
		</g>
		<g id="_x3C_Calque_x3E_">
		</g>
		<g>
			<text transform="matrix(1 0 0 1 93.8916 160.8075)" class="st3 st8 st5">10</text>
		</g>
		<g>
			<text transform="matrix(1 0 0 1 61.6735 158.5037)" class="st3 st8 st5">20</text>
		</g>
		<g>
			<text transform="matrix(1 0 0 1 25.0562 153.5269)" class="st3 st8 st5">30</text>
		</g>
		<path class="st28" d="M88.1,176.5c0-5,4.1-9.2,9.2-9.2c5,0,9.2,4.1,9.2,9.2s-4.1,9.2-9.2,9.2C92.2,185.6,88.1,181.5,88.1,176.5"/>
		<path class="st28" d="M53.4,174c0-6.4,5.2-11.6,11.6-11.6s11.6,5.2,11.6,11.6c0,6.4-5.2,11.6-11.6,11.6S53.4,180.4,53.4,174"/>
		<path class="st28" d="M14.9,172.1c0-7.5,6.1-13.6,13.6-13.6c7.5,0,13.6,6.1,13.6,13.6c0,7.5-6.1,13.6-13.6,13.6
			C21,185.6,14.9,179.5,14.9,172.1"/>
		<text transform="matrix(1 0 0 1 26.1912 245.3037)" class="st3 st8 st5">Grands pôles</text>
		<text transform="matrix(1 0 0 1 26.1912 262.3254)" class="st3 st8 st5">Couronnes des grands pôles</text>
		<text transform="matrix(1 0 0 1 26.1912 279.8472)"><tspan x="0" y="0" class="st3 st8 st5">Communes multipolarisées des</tspan><tspan x="0" y="7" class="st3 st8 st5">grandes aires urbaines</tspan></text>
		<text transform="matrix(1 0 0 1 134.1133 245.304)" class="st3 st8 st5">Pôles moyens</text>
		<text transform="matrix(1 0 0 1 134.1133 262.3257)" class="st3 st8 st5">Couronnes des pôles moyens</text>
		<text transform="matrix(1 0 0 1 239.2705 245.3037)" class="st3 st8 st5">Petits pôles</text>
		<text transform="matrix(1 0 0 1 239.271 262.3257)" class="st3 st8 st5">Couronnes des petits pôles</text>
		<text transform="matrix(1 0 0 1 354.5303 241.3811)"><tspan x="0" y="0" class="st3 st8 st5">Autres communes</tspan><tspan x="0" y="7" class="st3 st8 st5">multipolarisées</tspan></text>
		<text transform="matrix(1 0 0 1 354.5234 259.1179)"><tspan x="0" y="0" class="st3 st8 st5">Communes isolées, </tspan><tspan x="0" y="7" class="st3 st8 st5">hors influence des pôles</tspan></text>
		<text transform="matrix(1 0 0 1 2.1389 230.2958)" class="st3 st29 st30">Grandes aires urbaines</text>
		<text transform="matrix(1 0 0 1 109.8554 230.2958)" class="st3 st29 st30">Aires urbaines moyennes</text>
		<text transform="matrix(1 0 0 1 217.572 230.2958)" class="st3 st29 st30">Petites aires urbaines</text>
		<text transform="matrix(1 0 0 1 330.9578 230.2958)" class="st3 st29 st30">Hors aires urbaines</text>
		<path class="st11" d="M12.1,255.2c3.5,0,6.3,2.8,6.3,6.3c0,3.5-2.8,6.3-6.3,6.3s-6.3-2.8-6.3-6.3"/>
		<path class="st22" d="M12.1,273.4c3.5,0,6.3,2.8,6.3,6.3s-2.8,6.3-6.3,6.3s-6.3-2.8-6.3-6.3"/>
		<path class="st9" d="M12.2,237c3.5,0,6.3,2.9,6.2,6.4c0,3.5-2.9,6.3-6.4,6.2s-6.3-2.9-6.2-6.4"/>
		<path class="st12" d="M119.9,237c3.5,0,6.3,2.9,6.2,6.4c0,3.5-2.9,6.3-6.4,6.2s-6.3-2.9-6.2-6.4"/>
		<path class="st23" d="M119.9,255.2c3.5,0,6.3,2.9,6.2,6.4c0,3.5-2.9,6.3-6.4,6.2s-6.3-2.9-6.2-6.4"/>
		<path class="st13" d="M225.5,236.4c3.5,0,6.3,2.9,6.2,6.4c0,3.5-2.9,6.3-6.4,6.2c-3.5,0-6.3-2.9-6.2-6.4"/>
		<path class="st14" d="M225.5,254.1c3.5,0,6.3,2.9,6.2,6.4s-2.9,6.3-6.4,6.2c-3.5,0-6.3-2.9-6.2-6.4"/>
		<path class="st15" d="M339,236.4c3.5,0,6.3,2.9,6.2,6.4c0,3.5-2.9,6.3-6.4,6.2c-3.5,0-6.3-2.9-6.2-6.4"/>
		<path class="st16" d="M339,254.1c3.5,0,6.3,2.9,6.2,6.4c0,3.5-2.9,6.3-6.4,6.2c-3.5,0-6.3-2.9-6.2-6.4"/>
		<rect x="2.1" y="25.7" class="st24" width="247.2" height="23.2"/>
		<text transform="matrix(1 0 0 1 2.1386 31.456)"><tspan x="0" y="0" class="st3 st29 st30">Taux de croissance annuel moyen de la population sur 2009-2014</tspan><tspan x="0" y="8" class="st3 st8 st5">En %, par catégorie du zonage en aires urbaines</tspan></text>
		<rect x="2.1" y="120.6" class="st24" width="118.9" height="20.2"/>
		<text transform="matrix(1 0 0 1 2.1386 126.3348)"><tspan x="0" y="0" class="st3 st29 st30">Population en 2014</tspan><tspan x="0" y="8" class="st3 st8 st5">En millions</tspan></text>
		<rect x="22" y="58.6" class="st31" width="18.7" height="6.5"/>
		<rect x="22" y="69.3" class="st32" width="18.7" height="6.5"/>
		<rect x="22" y="80.1" class="st33" width="18.7" height="6.5"/>
		<rect x="22" y="91.4" class="st34" width="18.7" height="6.5"/>
		<text transform="matrix(1 0 0 1 44.7492 69.8775)" class="st3 st8 st5">+0,6</text>
		<text transform="matrix(1 0 0 1 44.7492 58.5579)" class="st3 st8 st5">+0,98</text>
		<text transform="matrix(1 0 0 1 44.7492 80.8319)" class="st3 st8 st5">+0,4</text>
		<text transform="matrix(1 0 0 1 44.7492 103.3334)" class="st3 st8 st5">-0.04</text>
		<path class="st35" d="M344,260.5c0-0.3,0-1.4-0.7-2.6c-0.2-0.4-0.7-1.2-1.6-1.8c-0.6-0.3-1.6-0.7-2.6-0.8c-0.4-0.1-0.8-0.1-1-0.4
			c-0.3-0.3-0.5-1-0.2-1.5c0.3-0.5,0.9-0.6,1.3-0.6c0.5-0.1,0.9,0,1.7,0.2c1,0.3,1.6,0.5,2.3,0.9c1.8,1.1,2.6,2.8,2.9,3.4
			c1.2,2.8,0.2,5.3,0.1,5.7c-0.2,0.5-1.1,2.8-3.7,4.1c-0.4,0.2-3.2,1.5-6.3,0.2c-0.1-0.1-2.6-1.1-3.8-3.5c-0.4-0.8-0.6-1.5-0.8-2.8
			c0-0.2-0.1-0.6,0-1.1c0-0.2,0.1-0.4,0.3-0.6c0.1-0.1,0.4-0.4,0.9-0.4c0,0,0.5,0,0.9,0.4c0.3,0.3,0.4,0.7,0.4,0.9
			c0,0.2,0,0.3,0,0.5c0,0.5,0.1,0.8,0.3,1.2c0.1,0.3,0.4,1.1,1.1,1.9c1.4,1.4,3.3,1.5,3.5,1.5c2.2,0.1,3.6-1.4,3.8-1.6
			C342.8,263.7,344,262.4,344,260.5z"/>
	</g>
	<text id="lgd_choro_min_val_1_" transform="matrix(1 0 0 1 44.7492 91.2209)" class="st3 st8 st5">0</text>
	<path class="st35" d="M187.9,90.4c0.9-0.2,1.9,0,1.9,0c2.6,0.7,2.4,0.5,3.3,0.9c0.8,0.4,2.8,1.2,4.6,3.3c1.5,1.7,2.3,3.5,2.7,4.7
		c1.2,4,0.1,7.3-0.3,8.2c-0.4,1.1-1.4,3.3-3.6,5.2c-0.5,0.4-2,1.6-4.3,2.4c-1.7,0.6-3,0.6-3.6,0.6c-0.6,0-2,0-3.8-0.5
		c-1.4-0.4-2.4-0.9-2.8-1.1c-0.4-0.2-1.7-1-3.1-2.5c-0.9-1-1.4-1.8-1.6-2.1c-0.1-0.2-1.1-1.9-1.5-3.9c0-0.2-0.1-0.6-0.2-1.5
		c0-0.2-0.1-0.6,0-1.1c0-0.4,0.1-0.5,0.2-0.6c0.2-0.3,0.5-0.4,0.6-0.5c0.1,0,0.5-0.2,0.9,0c0.1,0,0.3,0.1,0.5,0.4
		c0.1,0.1,0.2,0.3,0.3,0.6c0,0.2,0,0.3,0,0.3c0,0.4,0,0.8,0.2,1.5c0.1,0.5,0.2,1.3,0.6,2.2c0.1,0.3,0.6,1.5,1.8,2.8
		c0.9,1,1.7,1.6,2.1,1.8c0.4,0.3,1.4,0.9,2.7,1.2c1,0.3,1.9,0.4,2.5,0.4c1.4,0.1,2.4-0.2,2.8-0.3c0.4-0.1,1.8-0.5,3.3-1.5
		c1.7-1.2,2.6-2.6,3-3.1c1-1.7,1.3-3.3,1.4-4.2c0.2-1.6-0.1-2.9-0.3-3.7c-0.2-0.7-0.7-2.1-1.9-3.6c-1-1.3-2.1-2-2.6-2.3
		c-0.4-0.2-1.2-0.7-2.4-1c-1.2-0.3-2.3-0.4-2.6-0.4c0,0-0.2,0-0.3,0c-0.3,0-0.5-0.1-0.5-0.2c-0.1-0.1-0.4-0.2-0.6-0.6
		c-0.1-0.4-0.1-0.7,0-0.8c0-0.1,0.1-0.4,0.5-0.7C187.6,90.5,187.7,90.4,187.9,90.4z"/>
</g>
<g id="legende_x5F_prop">
</g>
</svg>
